ISO-10303-21;
HEADER;
/* Generated by software containing ST-Developer
 * from STEP Tools, Inc. (www.steptools.com) 
 */
/* OPTION: using custom renumber hook */

FILE_DESCRIPTION(
/* description */ ('STEP AP242 Edition 2',
'CAx-IF Rec.Pracs.---Representation and Presentation of Product Manufa
cturing Information (PMI)---4.0---2014-10-13',
'CAx-IF Rec.Pracs.---3D Tessellated Geometry---0.4---2014-09-14','2;1',
'CAx-IF Rec.Pracs.---User Defined Attributes---1.5---2016-08-15'),
/* implementation_level */ '2;1');

FILE_NAME(
/* name */ 'Hat Clip',
/* time_stamp */ '2026-05-30T19:32:46Z',
/* author */ (''),
/* organization */ (''),
/* preprocessor_version */ 'ST-DEVELOPER v20',
/* originating_system */ 'ONSHAPE BY PTC INC, 1.215',
/* authorisation */ '  ');

FILE_SCHEMA (('AP242_MANAGED_MODEL_BASED_3D_ENGINEERING_MIM_LF { 1 0 10303 442 3 1 4 }'));
ENDSEC;

DATA;
#10=SHAPE_REPRESENTATION_RELATIONSHIP('','',#394,#11);
#11=ADVANCED_BREP_SHAPE_REPRESENTATION('',(#392),#616);
#12=ORIENTED_EDGE('',*,*,#114,.T.);
#13=ORIENTED_EDGE('',*,*,#115,.F.);
#14=ORIENTED_EDGE('',*,*,#116,.F.);
#15=ORIENTED_EDGE('',*,*,#117,.T.);
#16=ORIENTED_EDGE('',*,*,#118,.T.);
#17=ORIENTED_EDGE('',*,*,#119,.F.);
#18=ORIENTED_EDGE('',*,*,#120,.F.);
#19=ORIENTED_EDGE('',*,*,#121,.T.);
#20=ORIENTED_EDGE('',*,*,#122,.F.);
#21=ORIENTED_EDGE('',*,*,#123,.F.);
#22=ORIENTED_EDGE('',*,*,#124,.T.);
#23=ORIENTED_EDGE('',*,*,#116,.T.);
#24=ORIENTED_EDGE('',*,*,#125,.T.);
#25=ORIENTED_EDGE('',*,*,#126,.F.);
#26=ORIENTED_EDGE('',*,*,#127,.F.);
#27=ORIENTED_EDGE('',*,*,#128,.T.);
#28=ORIENTED_EDGE('',*,*,#129,.T.);
#29=ORIENTED_EDGE('',*,*,#130,.F.);
#30=ORIENTED_EDGE('',*,*,#131,.F.);
#31=ORIENTED_EDGE('',*,*,#126,.T.);
#32=ORIENTED_EDGE('',*,*,#132,.T.);
#33=ORIENTED_EDGE('',*,*,#133,.F.);
#34=ORIENTED_EDGE('',*,*,#134,.F.);
#35=ORIENTED_EDGE('',*,*,#130,.T.);
#36=ORIENTED_EDGE('',*,*,#135,.T.);
#37=ORIENTED_EDGE('',*,*,#136,.F.);
#38=ORIENTED_EDGE('',*,*,#137,.F.);
#39=ORIENTED_EDGE('',*,*,#133,.T.);
#40=ORIENTED_EDGE('',*,*,#138,.T.);
#41=ORIENTED_EDGE('',*,*,#139,.F.);
#42=ORIENTED_EDGE('',*,*,#140,.F.);
#43=ORIENTED_EDGE('',*,*,#136,.T.);
#44=ORIENTED_EDGE('',*,*,#141,.T.);
#45=ORIENTED_EDGE('',*,*,#121,.F.);
#46=ORIENTED_EDGE('',*,*,#142,.F.);
#47=ORIENTED_EDGE('',*,*,#139,.T.);
#48=ORIENTED_EDGE('',*,*,#143,.T.);
#49=ORIENTED_EDGE('',*,*,#128,.F.);
#50=ORIENTED_EDGE('',*,*,#144,.F.);
#51=ORIENTED_EDGE('',*,*,#119,.T.);
#52=ORIENTED_EDGE('',*,*,#127,.T.);
#53=ORIENTED_EDGE('',*,*,#131,.T.);
#54=ORIENTED_EDGE('',*,*,#134,.T.);
#55=ORIENTED_EDGE('',*,*,#137,.T.);
#56=ORIENTED_EDGE('',*,*,#140,.T.);
#57=ORIENTED_EDGE('',*,*,#142,.T.);
#58=ORIENTED_EDGE('',*,*,#120,.T.);
#59=ORIENTED_EDGE('',*,*,#144,.T.);
#60=ORIENTED_EDGE('',*,*,#125,.F.);
#61=ORIENTED_EDGE('',*,*,#143,.F.);
#62=ORIENTED_EDGE('',*,*,#118,.F.);
#63=ORIENTED_EDGE('',*,*,#141,.F.);
#64=ORIENTED_EDGE('',*,*,#138,.F.);
#65=ORIENTED_EDGE('',*,*,#135,.F.);
#66=ORIENTED_EDGE('',*,*,#132,.F.);
#67=ORIENTED_EDGE('',*,*,#129,.F.);
#68=ORIENTED_EDGE('',*,*,#145,.F.);
#69=ORIENTED_EDGE('',*,*,#146,.F.);
#70=ORIENTED_EDGE('',*,*,#147,.T.);
#71=ORIENTED_EDGE('',*,*,#148,.F.);
#72=ORIENTED_EDGE('',*,*,#149,.F.);
#73=ORIENTED_EDGE('',*,*,#150,.F.);
#74=ORIENTED_EDGE('',*,*,#151,.T.);
#75=ORIENTED_EDGE('',*,*,#123,.T.);
#76=ORIENTED_EDGE('',*,*,#117,.F.);
#77=ORIENTED_EDGE('',*,*,#124,.F.);
#78=ORIENTED_EDGE('',*,*,#151,.F.);
#79=ORIENTED_EDGE('',*,*,#152,.F.);
#80=ORIENTED_EDGE('',*,*,#153,.T.);
#81=ORIENTED_EDGE('',*,*,#115,.T.);
#82=ORIENTED_EDGE('',*,*,#154,.F.);
#83=ORIENTED_EDGE('',*,*,#155,.T.);
#84=ORIENTED_EDGE('',*,*,#145,.T.);
#85=ORIENTED_EDGE('',*,*,#122,.T.);
#86=ORIENTED_EDGE('',*,*,#156,.T.);
#87=ORIENTED_EDGE('',*,*,#157,.F.);
#88=ORIENTED_EDGE('',*,*,#158,.F.);
#89=ORIENTED_EDGE('',*,*,#148,.T.);
#90=ORIENTED_EDGE('',*,*,#157,.T.);
#91=ORIENTED_EDGE('',*,*,#159,.F.);
#92=ORIENTED_EDGE('',*,*,#160,.T.);
#93=ORIENTED_EDGE('',*,*,#154,.T.);
#94=ORIENTED_EDGE('',*,*,#114,.F.);
#95=ORIENTED_EDGE('',*,*,#153,.F.);
#96=ORIENTED_EDGE('',*,*,#161,.T.);
#97=ORIENTED_EDGE('',*,*,#162,.T.);
#98=ORIENTED_EDGE('',*,*,#156,.F.);
#99=ORIENTED_EDGE('',*,*,#147,.F.);
#100=ORIENTED_EDGE('',*,*,#163,.T.);
#101=ORIENTED_EDGE('',*,*,#159,.T.);
#102=ORIENTED_EDGE('',*,*,#160,.F.);
#103=ORIENTED_EDGE('',*,*,#163,.F.);
#104=ORIENTED_EDGE('',*,*,#146,.T.);
#105=ORIENTED_EDGE('',*,*,#155,.F.);
#106=ORIENTED_EDGE('',*,*,#149,.T.);
#107=ORIENTED_EDGE('',*,*,#158,.T.);
#108=ORIENTED_EDGE('',*,*,#162,.F.);
#109=ORIENTED_EDGE('',*,*,#164,.F.);
#110=ORIENTED_EDGE('',*,*,#161,.F.);
#111=ORIENTED_EDGE('',*,*,#152,.T.);
#112=ORIENTED_EDGE('',*,*,#150,.T.);
#113=ORIENTED_EDGE('',*,*,#164,.T.);
#114=EDGE_CURVE('',#165,#166,#199,.T.);
#115=EDGE_CURVE('',#167,#166,#200,.T.);
#116=EDGE_CURVE('',#168,#167,#201,.T.);
#117=EDGE_CURVE('',#168,#165,#202,.T.);
#118=EDGE_CURVE('',#169,#170,#203,.T.);
#119=EDGE_CURVE('',#171,#170,#204,.T.);
#120=EDGE_CURVE('',#172,#171,#205,.T.);
#121=EDGE_CURVE('',#172,#169,#206,.T.);
#122=EDGE_CURVE('',#173,#167,#207,.T.);
#123=EDGE_CURVE('',#174,#173,#208,.T.);
#124=EDGE_CURVE('',#174,#168,#209,.T.);
#125=EDGE_CURVE('',#175,#176,#210,.T.);
#126=EDGE_CURVE('',#177,#176,#211,.T.);
#127=EDGE_CURVE('',#178,#177,#212,.T.);
#128=EDGE_CURVE('',#178,#175,#213,.T.);
#129=EDGE_CURVE('',#176,#179,#214,.T.);
#130=EDGE_CURVE('',#180,#179,#215,.T.);
#131=EDGE_CURVE('',#177,#180,#216,.T.);
#132=EDGE_CURVE('',#179,#181,#217,.T.);
#133=EDGE_CURVE('',#182,#181,#218,.T.);
#134=EDGE_CURVE('',#180,#182,#219,.T.);
#135=EDGE_CURVE('',#181,#183,#220,.T.);
#136=EDGE_CURVE('',#184,#183,#221,.T.);
#137=EDGE_CURVE('',#182,#184,#222,.T.);
#138=EDGE_CURVE('',#183,#185,#223,.T.);
#139=EDGE_CURVE('',#186,#185,#224,.T.);
#140=EDGE_CURVE('',#184,#186,#225,.T.);
#141=EDGE_CURVE('',#185,#169,#226,.T.);
#142=EDGE_CURVE('',#186,#172,#227,.T.);
#143=EDGE_CURVE('',#170,#175,#228,.T.);
#144=EDGE_CURVE('',#171,#178,#229,.T.);
#145=EDGE_CURVE('',#187,#173,#230,.T.);
#146=EDGE_CURVE('',#188,#187,#231,.T.);
#147=EDGE_CURVE('',#188,#189,#232,.T.);
#148=EDGE_CURVE('',#190,#189,#233,.T.);
#149=EDGE_CURVE('',#191,#190,#234,.T.);
#150=EDGE_CURVE('',#192,#191,#235,.T.);
#151=EDGE_CURVE('',#192,#174,#236,.T.);
#152=EDGE_CURVE('',#193,#192,#237,.T.);
#153=EDGE_CURVE('',#193,#165,#238,.T.);
#154=EDGE_CURVE('',#194,#166,#239,.T.);
#155=EDGE_CURVE('',#194,#187,#240,.T.);
#156=EDGE_CURVE('',#189,#195,#241,.T.);
#157=EDGE_CURVE('',#196,#195,#242,.T.);
#158=EDGE_CURVE('',#190,#196,#243,.T.);
#159=EDGE_CURVE('',#197,#195,#244,.T.);
#160=EDGE_CURVE('',#197,#194,#245,.T.);
#161=EDGE_CURVE('',#193,#198,#246,.T.);
#162=EDGE_CURVE('',#198,#196,#247,.T.);
#163=EDGE_CURVE('',#188,#197,#248,.T.);
#164=EDGE_CURVE('',#191,#198,#249,.T.);
#165=VERTEX_POINT('',#512);
#166=VERTEX_POINT('',#513);
#167=VERTEX_POINT('',#515);
#168=VERTEX_POINT('',#517);
#169=VERTEX_POINT('',#521);
#170=VERTEX_POINT('',#522);
#171=VERTEX_POINT('',#524);
#172=VERTEX_POINT('',#526);
#173=VERTEX_POINT('',#529);
#174=VERTEX_POINT('',#531);
#175=VERTEX_POINT('',#535);
#176=VERTEX_POINT('',#536);
#177=VERTEX_POINT('',#538);
#178=VERTEX_POINT('',#540);
#179=VERTEX_POINT('',#544);
#180=VERTEX_POINT('',#546);
#181=VERTEX_POINT('',#550);
#182=VERTEX_POINT('',#552);
#183=VERTEX_POINT('',#556);
#184=VERTEX_POINT('',#558);
#185=VERTEX_POINT('',#562);
#186=VERTEX_POINT('',#564);
#187=VERTEX_POINT('',#576);
#188=VERTEX_POINT('',#578);
#189=VERTEX_POINT('',#580);
#190=VERTEX_POINT('',#582);
#191=VERTEX_POINT('',#584);
#192=VERTEX_POINT('',#586);
#193=VERTEX_POINT('',#590);
#194=VERTEX_POINT('',#594);
#195=VERTEX_POINT('',#598);
#196=VERTEX_POINT('',#600);
#197=VERTEX_POINT('',#604);
#198=VERTEX_POINT('',#607);
#199=LINE('',#511,#250);
#200=LINE('',#514,#251);
#201=LINE('',#516,#252);
#202=LINE('',#518,#253);
#203=LINE('',#520,#254);
#204=LINE('',#523,#255);
#205=LINE('',#525,#256);
#206=LINE('',#527,#257);
#207=LINE('',#528,#258);
#208=LINE('',#530,#259);
#209=LINE('',#532,#260);
#210=LINE('',#534,#261);
#211=LINE('',#537,#262);
#212=LINE('',#539,#263);
#213=LINE('',#541,#264);
#214=LINE('',#543,#265);
#215=LINE('',#545,#266);
#216=LINE('',#547,#267);
#217=LINE('',#549,#268);
#218=LINE('',#551,#269);
#219=LINE('',#553,#270);
#220=LINE('',#555,#271);
#221=LINE('',#557,#272);
#222=LINE('',#559,#273);
#223=LINE('',#561,#274);
#224=LINE('',#563,#275);
#225=LINE('',#565,#276);
#226=LINE('',#567,#277);
#227=LINE('',#568,#278);
#228=LINE('',#570,#279);
#229=LINE('',#571,#280);
#230=LINE('',#575,#281);
#231=LINE('',#577,#282);
#232=LINE('',#579,#283);
#233=LINE('',#581,#284);
#234=LINE('',#583,#285);
#235=LINE('',#585,#286);
#236=LINE('',#587,#287);
#237=LINE('',#589,#288);
#238=LINE('',#591,#289);
#239=LINE('',#593,#290);
#240=LINE('',#595,#291);
#241=LINE('',#597,#292);
#242=LINE('',#599,#293);
#243=LINE('',#601,#294);
#244=LINE('',#603,#295);
#245=LINE('',#605,#296);
#246=LINE('',#606,#297);
#247=LINE('',#608,#298);
#248=LINE('',#610,#299);
#249=LINE('',#613,#300);
#250=VECTOR('',#420,1.);
#251=VECTOR('',#421,1.);
#252=VECTOR('',#422,1.);
#253=VECTOR('',#423,1.);
#254=VECTOR('',#426,1.);
#255=VECTOR('',#427,1.);
#256=VECTOR('',#428,1.);
#257=VECTOR('',#429,1.);
#258=VECTOR('',#430,1.);
#259=VECTOR('',#431,1.);
#260=VECTOR('',#432,1.);
#261=VECTOR('',#435,1.);
#262=VECTOR('',#436,1.);
#263=VECTOR('',#437,1.);
#264=VECTOR('',#438,1.);
#265=VECTOR('',#441,1.);
#266=VECTOR('',#442,1.);
#267=VECTOR('',#443,1.);
#268=VECTOR('',#446,1.);
#269=VECTOR('',#447,1.);
#270=VECTOR('',#448,1.);
#271=VECTOR('',#451,1.);
#272=VECTOR('',#452,1.);
#273=VECTOR('',#453,1.);
#274=VECTOR('',#456,1.);
#275=VECTOR('',#457,1.);
#276=VECTOR('',#458,1.);
#277=VECTOR('',#461,1.);
#278=VECTOR('',#462,1.);
#279=VECTOR('',#465,1.);
#280=VECTOR('',#466,1.);
#281=VECTOR('',#473,1.);
#282=VECTOR('',#474,1.);
#283=VECTOR('',#475,1.);
#284=VECTOR('',#476,1.);
#285=VECTOR('',#477,1.);
#286=VECTOR('',#478,1.);
#287=VECTOR('',#479,1.);
#288=VECTOR('',#482,1.);
#289=VECTOR('',#483,1.);
#290=VECTOR('',#486,1.);
#291=VECTOR('',#487,1.);
#292=VECTOR('',#490,1.);
#293=VECTOR('',#491,1.);
#294=VECTOR('',#492,1.);
#295=VECTOR('',#495,1.);
#296=VECTOR('',#496,1.);
#297=VECTOR('',#497,1.);
#298=VECTOR('',#498,1.);
#299=VECTOR('',#501,1.);
#300=VECTOR('',#506,1.);
#301=EDGE_LOOP('',(#12,#13,#14,#15));
#302=EDGE_LOOP('',(#16,#17,#18,#19));
#303=EDGE_LOOP('',(#20,#21,#22,#23));
#304=EDGE_LOOP('',(#24,#25,#26,#27));
#305=EDGE_LOOP('',(#28,#29,#30,#31));
#306=EDGE_LOOP('',(#32,#33,#34,#35));
#307=EDGE_LOOP('',(#36,#37,#38,#39));
#308=EDGE_LOOP('',(#40,#41,#42,#43));
#309=EDGE_LOOP('',(#44,#45,#46,#47));
#310=EDGE_LOOP('',(#48,#49,#50,#51));
#311=EDGE_LOOP('',(#52,#53,#54,#55,#56,#57,#58,#59));
#312=EDGE_LOOP('',(#60,#61,#62,#63,#64,#65,#66,#67));
#313=EDGE_LOOP('',(#68,#69,#70,#71,#72,#73,#74,#75));
#314=EDGE_LOOP('',(#76,#77,#78,#79,#80));
#315=EDGE_LOOP('',(#81,#82,#83,#84,#85));
#316=EDGE_LOOP('',(#86,#87,#88,#89));
#317=EDGE_LOOP('',(#90,#91,#92,#93,#94,#95,#96,#97));
#318=EDGE_LOOP('',(#98,#99,#100,#101));
#319=EDGE_LOOP('',(#102,#103,#104,#105));
#320=EDGE_LOOP('',(#106,#107,#108,#109));
#321=EDGE_LOOP('',(#110,#111,#112,#113));
#322=FACE_BOUND('',#301,.T.);
#323=FACE_BOUND('',#302,.T.);
#324=FACE_BOUND('',#303,.T.);
#325=FACE_BOUND('',#304,.T.);
#326=FACE_BOUND('',#305,.T.);
#327=FACE_BOUND('',#306,.T.);
#328=FACE_BOUND('',#307,.T.);
#329=FACE_BOUND('',#308,.T.);
#330=FACE_BOUND('',#309,.T.);
#331=FACE_BOUND('',#310,.T.);
#332=FACE_BOUND('',#311,.T.);
#333=FACE_BOUND('',#312,.T.);
#334=FACE_BOUND('',#313,.T.);
#335=FACE_BOUND('',#314,.T.);
#336=FACE_BOUND('',#315,.T.);
#337=FACE_BOUND('',#316,.T.);
#338=FACE_BOUND('',#317,.T.);
#339=FACE_BOUND('',#318,.T.);
#340=FACE_BOUND('',#319,.T.);
#341=FACE_BOUND('',#320,.T.);
#342=FACE_BOUND('',#321,.T.);
#343=PLANE('',#396);
#344=PLANE('',#397);
#345=PLANE('',#398);
#346=PLANE('',#399);
#347=PLANE('',#400);
#348=PLANE('',#401);
#349=PLANE('',#402);
#350=PLANE('',#403);
#351=PLANE('',#404);
#352=PLANE('',#405);
#353=PLANE('',#406);
#354=PLANE('',#407);
#355=PLANE('',#408);
#356=PLANE('',#409);
#357=PLANE('',#410);
#358=PLANE('',#411);
#359=PLANE('',#412);
#360=PLANE('',#413);
#361=PLANE('',#414);
#362=PLANE('',#415);
#363=ADVANCED_FACE('',(#322),#343,.T.);
#364=ADVANCED_FACE('',(#323,#324),#344,.F.);
#365=ADVANCED_FACE('',(#325),#345,.F.);
#366=ADVANCED_FACE('',(#326),#346,.F.);
#367=ADVANCED_FACE('',(#327),#347,.F.);
#368=ADVANCED_FACE('',(#328),#348,.F.);
#369=ADVANCED_FACE('',(#329),#349,.F.);
#370=ADVANCED_FACE('',(#330),#350,.F.);
#371=ADVANCED_FACE('',(#331),#351,.F.);
#372=ADVANCED_FACE('',(#332),#352,.T.);
#373=ADVANCED_FACE('',(#333),#353,.F.);
#374=ADVANCED_FACE('',(#334),#354,.T.);
#375=ADVANCED_FACE('',(#335),#355,.T.);
#376=ADVANCED_FACE('',(#336),#356,.F.);
#377=ADVANCED_FACE('',(#337),#357,.F.);
#378=ADVANCED_FACE('',(#338),#358,.F.);
#379=ADVANCED_FACE('',(#339),#359,.T.);
#380=ADVANCED_FACE('',(#340),#360,.T.);
#381=ADVANCED_FACE('',(#341),#361,.F.);
#382=ADVANCED_FACE('',(#342),#362,.T.);
#383=CLOSED_SHELL('',(#363,#364,#365,#366,#367,#368,#369,#370,#371,#372,
#373,#374,#375,#376,#377,#378,#379,#380,#381,#382));
#384=STYLED_ITEM('',(#385),#392);
#385=PRESENTATION_STYLE_ASSIGNMENT((#386));
#386=SURFACE_STYLE_USAGE(.BOTH.,#387);
#387=SURFACE_SIDE_STYLE('',(#388));
#388=SURFACE_STYLE_FILL_AREA(#389);
#389=FILL_AREA_STYLE('',(#390));
#390=FILL_AREA_STYLE_COLOUR('',#391);
#391=COLOUR_RGB('',0.615686274509804,0.811764705882353,0.929411764705882);
#392=MANIFOLD_SOLID_BREP('Part 1',#383);
#393=SHAPE_DEFINITION_REPRESENTATION(#621,#394);
#394=SHAPE_REPRESENTATION('Part 1',(#395),#616);
#395=AXIS2_PLACEMENT_3D('',#509,#416,#417);
#396=AXIS2_PLACEMENT_3D('',#510,#418,#419);
#397=AXIS2_PLACEMENT_3D('',#519,#424,#425);
#398=AXIS2_PLACEMENT_3D('',#533,#433,#434);
#399=AXIS2_PLACEMENT_3D('',#542,#439,#440);
#400=AXIS2_PLACEMENT_3D('',#548,#444,#445);
#401=AXIS2_PLACEMENT_3D('',#554,#449,#450);
#402=AXIS2_PLACEMENT_3D('',#560,#454,#455);
#403=AXIS2_PLACEMENT_3D('',#566,#459,#460);
#404=AXIS2_PLACEMENT_3D('',#569,#463,#464);
#405=AXIS2_PLACEMENT_3D('',#572,#467,#468);
#406=AXIS2_PLACEMENT_3D('',#573,#469,#470);
#407=AXIS2_PLACEMENT_3D('',#574,#471,#472);
#408=AXIS2_PLACEMENT_3D('',#588,#480,#481);
#409=AXIS2_PLACEMENT_3D('',#592,#484,#485);
#410=AXIS2_PLACEMENT_3D('',#596,#488,#489);
#411=AXIS2_PLACEMENT_3D('',#602,#493,#494);
#412=AXIS2_PLACEMENT_3D('',#609,#499,#500);
#413=AXIS2_PLACEMENT_3D('',#611,#502,#503);
#414=AXIS2_PLACEMENT_3D('',#612,#504,#505);
#415=AXIS2_PLACEMENT_3D('',#614,#507,#508);
#416=DIRECTION('',(0.,0.,1.));
#417=DIRECTION('',(1.,0.,0.));
#418=DIRECTION('',(0.,-1.,0.));
#419=DIRECTION('',(0.,0.,-1.));
#420=DIRECTION('',(-1.,0.,0.));
#421=DIRECTION('',(0.,0.,1.));
#422=DIRECTION('',(-1.,0.,0.));
#423=DIRECTION('',(0.,0.,1.));
#424=DIRECTION('',(0.,0.99144486137381,-0.130526192220051));
#425=DIRECTION('',(0.,0.130526192220051,0.991444861373811));
#426=DIRECTION('',(0.,-0.130526192220051,-0.99144486137381));
#427=DIRECTION('',(-1.,0.,0.));
#428=DIRECTION('',(0.,-0.130526192220051,-0.99144486137381));
#429=DIRECTION('',(-1.,0.,0.));
#430=DIRECTION('',(0.,-0.130526192220052,-0.99144486137381));
#431=DIRECTION('',(-1.,0.,0.));
#432=DIRECTION('',(0.,-0.130526192220052,-0.99144486137381));
#433=DIRECTION('',(0.,-0.99144486137381,-0.130526192220052));
#434=DIRECTION('',(0.,0.130526192220052,-0.99144486137381));
#435=DIRECTION('',(0.,-0.130526192220052,0.99144486137381));
#436=DIRECTION('',(-1.,0.,0.));
#437=DIRECTION('',(0.,-0.130526192220052,0.99144486137381));
#438=DIRECTION('',(-1.,0.,0.));
#439=DIRECTION('',(0.,0.,-1.));
#440=DIRECTION('',(-1.,0.,0.));
#441=DIRECTION('',(0.,-1.,0.));
#442=DIRECTION('',(-1.,0.,0.));
#443=DIRECTION('',(0.,-1.,0.));
#444=DIRECTION('',(0.,0.999048221581858,0.0436193873653362));
#445=DIRECTION('',(0.,-0.0436193873653362,0.999048221581858));
#446=DIRECTION('',(0.,0.0436193873653362,-0.999048221581858));
#447=DIRECTION('',(-1.,0.,0.));
#448=DIRECTION('',(0.,0.0436193873653362,-0.999048221581858));
#449=DIRECTION('',(0.,1.22464679914735E-16,-1.));
#450=DIRECTION('',(0.,1.,1.22464679914735E-16));
#451=DIRECTION('',(0.,-1.,-1.22464679914735E-16));
#452=DIRECTION('',(-1.,0.,0.));
#453=DIRECTION('',(0.,-1.,-1.22464679914735E-16));
#454=DIRECTION('',(0.,-0.999048221581858,0.0436193873653358));
#455=DIRECTION('',(0.,-0.0436193873653358,-0.999048221581858));
#456=DIRECTION('',(0.,0.0436193873653358,0.999048221581858));
#457=DIRECTION('',(-1.,0.,0.));
#458=DIRECTION('',(0.,0.0436193873653358,0.999048221581858));
#459=DIRECTION('',(0.,0.,-1.));
#460=DIRECTION('',(-1.,0.,0.));
#461=DIRECTION('',(0.,-1.,0.));
#462=DIRECTION('',(0.,-1.,0.));
#463=DIRECTION('',(0.,0.,1.));
#464=DIRECTION('',(1.,0.,0.));
#465=DIRECTION('',(0.,1.,0.));
#466=DIRECTION('',(0.,1.,0.));
#467=DIRECTION('',(1.,0.,0.));
#468=DIRECTION('',(0.,1.,0.));
#469=DIRECTION('',(1.,0.,0.));
#470=DIRECTION('',(0.,1.,0.));
#471=DIRECTION('',(0.,0.,1.));
#472=DIRECTION('',(1.,0.,0.));
#473=DIRECTION('',(0.,1.,0.));
#474=DIRECTION('',(-1.,0.,0.));
#475=DIRECTION('',(0.,1.,0.));
#476=DIRECTION('',(-1.,0.,0.));
#477=DIRECTION('',(0.,1.,0.));
#478=DIRECTION('',(-1.,0.,0.));
#479=DIRECTION('',(0.,1.,0.));
#480=DIRECTION('',(1.,0.,0.));
#481=DIRECTION('',(0.,1.,0.));
#482=DIRECTION('',(0.,0.,1.));
#483=DIRECTION('',(0.,1.,0.));
#484=DIRECTION('',(1.,0.,0.));
#485=DIRECTION('',(0.,1.,0.));
#486=DIRECTION('',(0.,1.,0.));
#487=DIRECTION('',(0.,0.,1.));
#488=DIRECTION('',(0.,1.,0.));
#489=DIRECTION('',(0.,0.,1.));
#490=DIRECTION('',(0.,0.,-1.));
#491=DIRECTION('',(-1.,0.,0.));
#492=DIRECTION('',(0.,0.,-1.));
#493=DIRECTION('',(0.,-3.46944695195362E-16,1.));
#494=DIRECTION('',(0.,-1.,-3.46944695195362E-16));
#495=DIRECTION('',(0.,1.,0.));
#496=DIRECTION('',(-1.,0.,0.));
#497=DIRECTION('',(-1.,0.,0.));
#498=DIRECTION('',(0.,1.,0.));
#499=DIRECTION('',(1.,0.,0.));
#500=DIRECTION('',(0.,0.,-1.));
#501=DIRECTION('',(0.,0.,-1.));
#502=DIRECTION('',(0.,-1.,0.));
#503=DIRECTION('',(1.,0.,0.));
#504=DIRECTION('',(1.,0.,0.));
#505=DIRECTION('',(0.,0.,-1.));
#506=DIRECTION('',(0.,0.,-1.));
#507=DIRECTION('',(0.,-1.,0.));
#508=DIRECTION('',(1.,0.,0.));
#509=CARTESIAN_POINT('',(0.,0.,0.));
#510=CARTESIAN_POINT('',(0.045,-0.0067191724232589,0.00949469264090645));
#511=CARTESIAN_POINT('',(0.0425,-0.0067191724232589,0.0109893852818129));
#512=CARTESIAN_POINT('',(0.045,-0.0067191724232589,0.0109893852818129));
#513=CARTESIAN_POINT('',(0.015,-0.0067191724232589,0.0109893852818129));
#514=CARTESIAN_POINT('',(0.015,-0.0067191724232589,0.00949469264090645));
#515=CARTESIAN_POINT('',(0.015,-0.0067191724232589,-1.7347234759768E-18));
#516=CARTESIAN_POINT('',(0.045,-0.0067191724232589,-1.7347234759768E-18));
#517=CARTESIAN_POINT('',(0.045,-0.0067191724232589,-1.7347234759768E-18));
#518=CARTESIAN_POINT('',(0.045,-0.0067191724232589,0.00949469264090645));
#519=CARTESIAN_POINT('',(0.06,-0.00558304995174792,0.00862970693553901));
#520=CARTESIAN_POINT('',(0.,-0.00558304995174792,0.00862970693553901));
#521=CARTESIAN_POINT('',(0.,-0.00295,0.0286297069355391));
#522=CARTESIAN_POINT('',(0.,-0.00821609990349584,-0.011370293064461));
#523=CARTESIAN_POINT('',(0.06,-0.00821609990349584,-0.011370293064461));
#524=CARTESIAN_POINT('',(0.06,-0.00821609990349584,-0.011370293064461));
#525=CARTESIAN_POINT('',(0.06,-0.00558304995174792,0.00862970693553901));
#526=CARTESIAN_POINT('',(0.06,-0.00295,0.0286297069355391));
#527=CARTESIAN_POINT('',(0.06,-0.00295,0.0286297069355391));
#528=CARTESIAN_POINT('',(0.015,-0.0054691724232589,0.00949469264090645));
#529=CARTESIAN_POINT('',(0.015,-0.0042191724232589,0.0189893852818129));
#530=CARTESIAN_POINT('',(0.045,-0.0042191724232589,0.0189893852818129));
#531=CARTESIAN_POINT('',(0.045,-0.0042191724232589,0.0189893852818129));
#532=CARTESIAN_POINT('',(0.045,-0.0054691724232589,0.00949469264090645));
#533=CARTESIAN_POINT('',(0.06,0.00558304995174791,0.008629706935539));
#534=CARTESIAN_POINT('',(0.,0.00558304995174791,0.008629706935539));
#535=CARTESIAN_POINT('',(0.,0.00821609990349583,-0.011370293064461));
#536=CARTESIAN_POINT('',(0.,0.00295,0.028629706935539));
#537=CARTESIAN_POINT('',(0.06,0.00295,0.028629706935539));
#538=CARTESIAN_POINT('',(0.06,0.00295,0.028629706935539));
#539=CARTESIAN_POINT('',(0.06,0.00558304995174791,0.008629706935539));
#540=CARTESIAN_POINT('',(0.06,0.00821609990349583,-0.011370293064461));
#541=CARTESIAN_POINT('',(0.06,0.00821609990349583,-0.011370293064461));
#542=CARTESIAN_POINT('',(0.06,0.00235,0.028629706935539));
#543=CARTESIAN_POINT('',(0.,0.00235,0.028629706935539));
#544=CARTESIAN_POINT('',(0.,0.00175,0.028629706935539));
#545=CARTESIAN_POINT('',(0.06,0.00175,0.028629706935539));
#546=CARTESIAN_POINT('',(0.06,0.00175,0.028629706935539));
#547=CARTESIAN_POINT('',(0.06,0.00235,0.028629706935539));
#548=CARTESIAN_POINT('',(0.06,0.002375,0.0143148534677695));
#549=CARTESIAN_POINT('',(0.,0.002375,0.0143148534677695));
#550=CARTESIAN_POINT('',(0.,0.003,7.91098585525046E-19));
#551=CARTESIAN_POINT('',(0.06,0.003,7.91098585525046E-19));
#552=CARTESIAN_POINT('',(0.06,0.003,7.91098585525046E-19));
#553=CARTESIAN_POINT('',(0.06,0.002375,0.0143148534677695));
#554=CARTESIAN_POINT('',(0.06,1.7347234759768E-18,4.2370454578084E-19));
#555=CARTESIAN_POINT('',(0.,1.7347234759768E-18,4.2370454578084E-19));
#556=CARTESIAN_POINT('',(0.,-0.003,-6.93889390390723E-18));
#557=CARTESIAN_POINT('',(0.06,-0.003,-6.93889390390723E-18));
#558=CARTESIAN_POINT('',(0.06,-0.003,-6.93889390390723E-18));
#559=CARTESIAN_POINT('',(0.06,1.7347234759768E-18,4.2370454578084E-19));
#560=CARTESIAN_POINT('',(0.06,-0.002375,0.0143148534677695));
#561=CARTESIAN_POINT('',(0.,-0.002375,0.0143148534677695));
#562=CARTESIAN_POINT('',(0.,-0.00175,0.028629706935539));
#563=CARTESIAN_POINT('',(0.06,-0.00175,0.028629706935539));
#564=CARTESIAN_POINT('',(0.06,-0.00175,0.028629706935539));
#565=CARTESIAN_POINT('',(0.06,-0.002375,0.0143148534677695));
#566=CARTESIAN_POINT('',(0.06,-0.00235,0.028629706935539));
#567=CARTESIAN_POINT('',(0.,-0.00235,0.028629706935539));
#568=CARTESIAN_POINT('',(0.06,-0.00235,0.028629706935539));
#569=CARTESIAN_POINT('',(0.06,0.,-0.011370293064461));
#570=CARTESIAN_POINT('',(0.,0.,-0.011370293064461));
#571=CARTESIAN_POINT('',(0.06,0.,-0.011370293064461));
#572=CARTESIAN_POINT('',(0.06,0.,0.00862970693553901));
#573=CARTESIAN_POINT('',(0.,0.,0.00862970693553901));
#574=CARTESIAN_POINT('',(0.045,-0.0054691724232589,0.0189893852818129));
#575=CARTESIAN_POINT('',(0.015,-0.0054691724232589,0.0189893852818129));
#576=CARTESIAN_POINT('',(0.015,-0.0317191724232589,0.0189893852818129));
#577=CARTESIAN_POINT('',(0.045,-0.0317191724232589,0.0189893852818129));
#578=CARTESIAN_POINT('',(0.0175,-0.0317191724232589,0.0189893852818129));
#579=CARTESIAN_POINT('',(0.0175,-0.0317191724232589,0.0189893852818129));
#580=CARTESIAN_POINT('',(0.0175,-0.0267191724232589,0.0189893852818129));
#581=CARTESIAN_POINT('',(0.0425,-0.0267191724232589,0.0189893852818129));
#582=CARTESIAN_POINT('',(0.0425,-0.0267191724232589,0.0189893852818129));
#583=CARTESIAN_POINT('',(0.0425,-0.0317191724232589,0.0189893852818129));
#584=CARTESIAN_POINT('',(0.0425,-0.0317191724232589,0.0189893852818129));
#585=CARTESIAN_POINT('',(0.045,-0.0317191724232589,0.0189893852818129));
#586=CARTESIAN_POINT('',(0.045,-0.0317191724232589,0.0189893852818129));
#587=CARTESIAN_POINT('',(0.045,-0.0054691724232589,0.0189893852818129));
#588=CARTESIAN_POINT('',(0.045,-0.0054691724232589,0.00949469264090645));
#589=CARTESIAN_POINT('',(0.045,-0.0317191724232589,0.00949469264090645));
#590=CARTESIAN_POINT('',(0.045,-0.0317191724232589,0.0109893852818129));
#591=CARTESIAN_POINT('',(0.045,-0.0317191724232589,0.0109893852818129));
#592=CARTESIAN_POINT('',(0.015,-0.0054691724232589,0.00949469264090645));
#593=CARTESIAN_POINT('',(0.015,-0.0317191724232589,0.0109893852818129));
#594=CARTESIAN_POINT('',(0.015,-0.0317191724232589,0.0109893852818129));
#595=CARTESIAN_POINT('',(0.015,-0.0317191724232589,0.00949469264090645));
#596=CARTESIAN_POINT('',(0.0425,-0.0267191724232589,0.0149893852818129));
#597=CARTESIAN_POINT('',(0.0175,-0.0267191724232589,0.0149893852818129));
#598=CARTESIAN_POINT('',(0.0175,-0.0267191724232589,0.0109893852818129));
#599=CARTESIAN_POINT('',(0.0425,-0.0267191724232589,0.0109893852818129));
#600=CARTESIAN_POINT('',(0.0425,-0.0267191724232589,0.0109893852818129));
#601=CARTESIAN_POINT('',(0.0425,-0.0267191724232589,0.0149893852818129));
#602=CARTESIAN_POINT('',(0.0425,-0.0167191724232589,0.0109893852818129));
#603=CARTESIAN_POINT('',(0.0175,-0.0317191724232589,0.0109893852818129));
#604=CARTESIAN_POINT('',(0.0175,-0.0317191724232589,0.0109893852818129));
#605=CARTESIAN_POINT('',(0.01625,-0.0317191724232589,0.0109893852818129));
#606=CARTESIAN_POINT('',(0.04375,-0.0317191724232589,0.0109893852818129));
#607=CARTESIAN_POINT('',(0.0425,-0.0317191724232589,0.0109893852818129));
#608=CARTESIAN_POINT('',(0.0425,-0.0317191724232589,0.0109893852818129));
#609=CARTESIAN_POINT('',(0.0175,-0.0317191724232589,0.0149893852818129));
#610=CARTESIAN_POINT('',(0.0175,-0.0317191724232589,0.0149893852818129));
#611=CARTESIAN_POINT('',(0.03,-0.0317191724232589,0.00949469264090645));
#612=CARTESIAN_POINT('',(0.0425,-0.0317191724232589,0.0149893852818129));
#613=CARTESIAN_POINT('',(0.0425,-0.0317191724232589,0.0149893852818129));
#614=CARTESIAN_POINT('',(0.03,-0.0317191724232589,0.00949469264090645));
#615=MECHANICAL_DESIGN_GEOMETRIC_PRESENTATION_REPRESENTATION('',(#384),
#616);
#616=(
GEOMETRIC_REPRESENTATION_CONTEXT(3)
GLOBAL_UNCERTAINTY_ASSIGNED_CONTEXT((#617))
GLOBAL_UNIT_ASSIGNED_CONTEXT((#620,#619,#618))
REPRESENTATION_CONTEXT('Part 1','TOP_LEVEL_ASSEMBLY_PART')
);
#617=UNCERTAINTY_MEASURE_WITH_UNIT(LENGTH_MEASURE(1.E-8),#620,
'DISTANCE_ACCURACY_VALUE','Maximum Tolerance applied to model');
#618=(
NAMED_UNIT(*)
SI_UNIT($,.STERADIAN.)
SOLID_ANGLE_UNIT()
);
#619=(
NAMED_UNIT(*)
PLANE_ANGLE_UNIT()
SI_UNIT($,.RADIAN.)
);
#620=(
LENGTH_UNIT()
NAMED_UNIT(*)
SI_UNIT($,.METRE.)
);
#621=PRODUCT_DEFINITION_SHAPE('','',#622);
#622=PRODUCT_DEFINITION('','',#624,#623);
#623=PRODUCT_DEFINITION_CONTEXT('',#630,'design');
#624=PRODUCT_DEFINITION_FORMATION_WITH_SPECIFIED_SOURCE('','',#626,
 .NOT_KNOWN.);
#625=PRODUCT_RELATED_PRODUCT_CATEGORY('','',(#626));
#626=PRODUCT('Part 1','Part 1','Part 1',(#628));
#627=PRODUCT_CATEGORY('','');
#628=PRODUCT_CONTEXT('',#630,'mechanical');
#629=APPLICATION_PROTOCOL_DEFINITION('international standard',
'ap242_managed_model_based_3d_engineering',2020,#630);
#630=APPLICATION_CONTEXT('managed model based 3d engineering');
ENDSEC;
END-ISO-10303-21;
