ISO-10303-21;
HEADER;
/* Generated by software containing ST-Developer
 * from STEP Tools, Inc. (www.steptools.com) 
 */
/* OPTION: using custom renumber hook */

FILE_DESCRIPTION(
/* description */ ('STEP AP242 Edition 2',
'CAx-IF Rec.Pracs.---Representation and Presentation of Product Manufa
cturing Information (PMI)---4.0---2014-10-13',
'CAx-IF Rec.Pracs.---3D Tessellated Geometry---0.4---2014-09-14','2;1',
'CAx-IF Rec.Pracs.---User Defined Attributes---1.5---2016-08-15'),
/* implementation_level */ '2;1');

FILE_NAME(
/* name */ 'Head Mold',
/* time_stamp */ '2026-05-30T19:32:54Z',
/* author */ (''),
/* organization */ (''),
/* preprocessor_version */ 'ST-DEVELOPER v20',
/* originating_system */ 'ONSHAPE BY PTC INC, 1.215',
/* authorisation */ '  ');

FILE_SCHEMA (('AP242_MANAGED_MODEL_BASED_3D_ENGINEERING_MIM_LF { 1 0 10303 442 3 1 4 }'));
ENDSEC;

DATA;
#10=SHAPE_REPRESENTATION_RELATIONSHIP('','',#1238,#11);
#11=ADVANCED_BREP_SHAPE_REPRESENTATION('',(#1236),#2094);
#12=SPHERICAL_SURFACE('',#1287,0.0025);
#13=SPHERICAL_SURFACE('',#1292,0.0025);
#14=ELLIPSE('',#1279,0.00353553390593274,0.0025);
#15=ELLIPSE('',#1281,0.00353553390593274,0.0025);
#16=ELLIPSE('',#1282,0.00353553390593274,0.0025);
#17=ELLIPSE('',#1284,0.00353553390593274,0.0025);
#18=ELLIPSE('',#1298,0.00180277563773199,0.001);
#19=ELLIPSE('',#1299,0.00180277563773199,0.001);
#20=ELLIPSE('',#1300,0.00120185042515466,0.001);
#21=ELLIPSE('',#1301,0.00120185042515466,0.001);
#22=ELLIPSE('',#1305,0.00180277563773199,0.001);
#23=ELLIPSE('',#1306,0.00180277563773199,0.001);
#24=ELLIPSE('',#1307,0.00120185042515466,0.001);
#25=ELLIPSE('',#1308,0.00120185042515466,0.001);
#26=ELLIPSE('',#1310,0.00141421356237309,0.001);
#27=ELLIPSE('',#1311,0.00141421356237309,0.001);
#28=ELLIPSE('',#1313,0.00141421356237309,0.001);
#29=ELLIPSE('',#1315,0.00141421356237309,0.001);
#30=ELLIPSE('',#1317,0.00141421356237309,0.001);
#31=ELLIPSE('',#1319,0.00141421356237309,0.001);
#32=ELLIPSE('',#1322,0.00141421356237309,0.001);
#33=ELLIPSE('',#1323,0.00141421356237309,0.001);
#34=ELLIPSE('',#1325,0.0014142135623731,0.001);
#35=ELLIPSE('',#1327,0.0014142135623731,0.001);
#36=ELLIPSE('',#1329,0.00141421356237309,0.001);
#37=ELLIPSE('',#1331,0.00141421356237309,0.001);
#38=ELLIPSE('',#1339,0.00110137085102126,0.001);
#39=ELLIPSE('',#1340,0.00110464734171762,0.001);
#40=ELLIPSE('',#1341,0.00110464734171762,0.001);
#41=ELLIPSE('',#1343,0.00110137085102126,0.001);
#42=ELLIPSE('',#1344,0.00109815834146762,0.001);
#43=ELLIPSE('',#1345,0.00109815834146762,0.001);
#44=ELLIPSE('',#1349,0.00118717542369747,0.001);
#45=ELLIPSE('',#1350,0.00118476235245556,0.001);
#46=ELLIPSE('',#1352,0.00141421356237309,0.001);
#47=ELLIPSE('',#1354,0.00118717542369747,0.001);
#48=ELLIPSE('',#1356,0.00141421356237309,0.001);
#49=ELLIPSE('',#1358,0.0011896104843043,0.001);
#50=ELLIPSE('',#1360,0.00141421356237309,0.001);
#51=ELLIPSE('',#1362,0.00141421356237309,0.001);
#52=CYLINDRICAL_SURFACE('',#1253,0.0025);
#53=CYLINDRICAL_SURFACE('',#1268,0.0025);
#54=CYLINDRICAL_SURFACE('',#1272,0.0025);
#55=CYLINDRICAL_SURFACE('',#1285,0.0025);
#56=CYLINDRICAL_SURFACE('',#1289,0.0025);
#57=CYLINDRICAL_SURFACE('',#1290,0.0025);
#58=CYLINDRICAL_SURFACE('',#1294,0.0025);
#59=CYLINDRICAL_SURFACE('',#1309,0.001);
#60=CYLINDRICAL_SURFACE('',#1312,0.001);
#61=CYLINDRICAL_SURFACE('',#1314,0.001);
#62=CYLINDRICAL_SURFACE('',#1316,0.001);
#63=CYLINDRICAL_SURFACE('',#1318,0.001);
#64=CYLINDRICAL_SURFACE('',#1320,0.001);
#65=CYLINDRICAL_SURFACE('',#1321,0.001);
#66=CYLINDRICAL_SURFACE('',#1324,0.001);
#67=CYLINDRICAL_SURFACE('',#1326,0.001);
#68=CYLINDRICAL_SURFACE('',#1328,0.001);
#69=CYLINDRICAL_SURFACE('',#1330,0.001);
#70=CYLINDRICAL_SURFACE('',#1332,0.001);
#71=CYLINDRICAL_SURFACE('',#1347,0.001);
#72=CYLINDRICAL_SURFACE('',#1348,0.001);
#73=CYLINDRICAL_SURFACE('',#1351,0.001);
#74=CYLINDRICAL_SURFACE('',#1353,0.001);
#75=CYLINDRICAL_SURFACE('',#1355,0.001);
#76=CYLINDRICAL_SURFACE('',#1357,0.001);
#77=CYLINDRICAL_SURFACE('',#1359,0.001);
#78=CYLINDRICAL_SURFACE('',#1361,0.001);
#79=CYLINDRICAL_SURFACE('',#1363,0.001);
#80=CIRCLE('',#1244,0.0025);
#81=CIRCLE('',#1245,0.0025);
#82=CIRCLE('',#1248,0.0025);
#83=CIRCLE('',#1249,0.0025);
#84=CIRCLE('',#1254,0.0025);
#85=CIRCLE('',#1256,0.0025);
#86=CIRCLE('',#1260,0.0025);
#87=CIRCLE('',#1261,0.0025);
#88=CIRCLE('',#1263,0.0025);
#89=CIRCLE('',#1264,0.0025);
#90=CIRCLE('',#1269,0.0025);
#91=CIRCLE('',#1271,0.0025);
#92=CIRCLE('',#1273,0.0025);
#93=CIRCLE('',#1274,0.0025);
#94=CIRCLE('',#1286,0.0025);
#95=CIRCLE('',#1288,0.0025);
#96=CIRCLE('',#1291,0.0025);
#97=CIRCLE('',#1293,0.0025);
#98=ORIENTED_EDGE('',*,*,#452,.T.);
#99=ORIENTED_EDGE('',*,*,#453,.T.);
#100=ORIENTED_EDGE('',*,*,#454,.T.);
#101=ORIENTED_EDGE('',*,*,#455,.T.);
#102=ORIENTED_EDGE('',*,*,#456,.T.);
#103=ORIENTED_EDGE('',*,*,#457,.F.);
#104=ORIENTED_EDGE('',*,*,#458,.F.);
#105=ORIENTED_EDGE('',*,*,#459,.F.);
#106=ORIENTED_EDGE('',*,*,#460,.T.);
#107=ORIENTED_EDGE('',*,*,#461,.T.);
#108=ORIENTED_EDGE('',*,*,#454,.F.);
#109=ORIENTED_EDGE('',*,*,#462,.T.);
#110=ORIENTED_EDGE('',*,*,#463,.T.);
#111=ORIENTED_EDGE('',*,*,#464,.T.);
#112=ORIENTED_EDGE('',*,*,#460,.F.);
#113=ORIENTED_EDGE('',*,*,#465,.T.);
#114=ORIENTED_EDGE('',*,*,#466,.F.);
#115=ORIENTED_EDGE('',*,*,#467,.T.);
#116=ORIENTED_EDGE('',*,*,#468,.T.);
#117=ORIENTED_EDGE('',*,*,#469,.T.);
#118=ORIENTED_EDGE('',*,*,#470,.F.);
#119=ORIENTED_EDGE('',*,*,#471,.T.);
#120=ORIENTED_EDGE('',*,*,#472,.T.);
#121=ORIENTED_EDGE('',*,*,#473,.T.);
#122=ORIENTED_EDGE('',*,*,#466,.T.);
#123=ORIENTED_EDGE('',*,*,#474,.T.);
#124=ORIENTED_EDGE('',*,*,#475,.T.);
#125=ORIENTED_EDGE('',*,*,#476,.F.);
#126=ORIENTED_EDGE('',*,*,#477,.F.);
#127=ORIENTED_EDGE('',*,*,#478,.T.);
#128=ORIENTED_EDGE('',*,*,#470,.T.);
#129=ORIENTED_EDGE('',*,*,#479,.T.);
#130=ORIENTED_EDGE('',*,*,#480,.F.);
#131=ORIENTED_EDGE('',*,*,#458,.T.);
#132=ORIENTED_EDGE('',*,*,#481,.F.);
#133=ORIENTED_EDGE('',*,*,#482,.F.);
#134=ORIENTED_EDGE('',*,*,#483,.T.);
#135=ORIENTED_EDGE('',*,*,#484,.T.);
#136=ORIENTED_EDGE('',*,*,#485,.F.);
#137=ORIENTED_EDGE('',*,*,#486,.T.);
#138=ORIENTED_EDGE('',*,*,#482,.T.);
#139=ORIENTED_EDGE('',*,*,#487,.T.);
#140=ORIENTED_EDGE('',*,*,#488,.T.);
#141=ORIENTED_EDGE('',*,*,#489,.T.);
#142=ORIENTED_EDGE('',*,*,#490,.T.);
#143=ORIENTED_EDGE('',*,*,#485,.T.);
#144=ORIENTED_EDGE('',*,*,#491,.T.);
#145=ORIENTED_EDGE('',*,*,#456,.F.);
#146=ORIENTED_EDGE('',*,*,#492,.T.);
#147=ORIENTED_EDGE('',*,*,#493,.T.);
#148=ORIENTED_EDGE('',*,*,#494,.T.);
#149=ORIENTED_EDGE('',*,*,#481,.T.);
#150=ORIENTED_EDGE('',*,*,#457,.T.);
#151=ORIENTED_EDGE('',*,*,#491,.F.);
#152=ORIENTED_EDGE('',*,*,#487,.F.);
#153=ORIENTED_EDGE('',*,*,#495,.T.);
#154=ORIENTED_EDGE('',*,*,#496,.T.);
#155=ORIENTED_EDGE('',*,*,#497,.T.);
#156=ORIENTED_EDGE('',*,*,#498,.T.);
#157=ORIENTED_EDGE('',*,*,#499,.F.);
#158=ORIENTED_EDGE('',*,*,#500,.T.);
#159=ORIENTED_EDGE('',*,*,#501,.T.);
#160=ORIENTED_EDGE('',*,*,#502,.T.);
#161=ORIENTED_EDGE('',*,*,#503,.T.);
#162=ORIENTED_EDGE('',*,*,#504,.T.);
#163=ORIENTED_EDGE('',*,*,#488,.F.);
#164=ORIENTED_EDGE('',*,*,#505,.T.);
#165=ORIENTED_EDGE('',*,*,#506,.T.);
#166=ORIENTED_EDGE('',*,*,#507,.T.);
#167=ORIENTED_EDGE('',*,*,#508,.F.);
#168=ORIENTED_EDGE('',*,*,#509,.T.);
#169=ORIENTED_EDGE('',*,*,#510,.T.);
#170=ORIENTED_EDGE('',*,*,#511,.T.);
#171=ORIENTED_EDGE('',*,*,#493,.F.);
#172=ORIENTED_EDGE('',*,*,#512,.T.);
#173=ORIENTED_EDGE('',*,*,#490,.F.);
#174=ORIENTED_EDGE('',*,*,#513,.T.);
#175=ORIENTED_EDGE('',*,*,#514,.F.);
#176=ORIENTED_EDGE('',*,*,#483,.F.);
#177=ORIENTED_EDGE('',*,*,#486,.F.);
#178=ORIENTED_EDGE('',*,*,#514,.T.);
#179=ORIENTED_EDGE('',*,*,#515,.T.);
#180=ORIENTED_EDGE('',*,*,#516,.T.);
#181=ORIENTED_EDGE('',*,*,#517,.T.);
#182=ORIENTED_EDGE('',*,*,#518,.T.);
#183=ORIENTED_EDGE('',*,*,#474,.F.);
#184=ORIENTED_EDGE('',*,*,#465,.F.);
#185=ORIENTED_EDGE('',*,*,#459,.T.);
#186=ORIENTED_EDGE('',*,*,#480,.T.);
#187=ORIENTED_EDGE('',*,*,#519,.T.);
#188=ORIENTED_EDGE('',*,*,#520,.T.);
#189=ORIENTED_EDGE('',*,*,#521,.T.);
#190=ORIENTED_EDGE('',*,*,#522,.T.);
#191=ORIENTED_EDGE('',*,*,#523,.T.);
#192=ORIENTED_EDGE('',*,*,#518,.F.);
#193=ORIENTED_EDGE('',*,*,#524,.T.);
#194=ORIENTED_EDGE('',*,*,#525,.T.);
#195=ORIENTED_EDGE('',*,*,#526,.T.);
#196=ORIENTED_EDGE('',*,*,#527,.T.);
#197=ORIENTED_EDGE('',*,*,#475,.F.);
#198=ORIENTED_EDGE('',*,*,#528,.T.);
#199=ORIENTED_EDGE('',*,*,#529,.T.);
#200=ORIENTED_EDGE('',*,*,#530,.F.);
#201=ORIENTED_EDGE('',*,*,#531,.T.);
#202=ORIENTED_EDGE('',*,*,#508,.T.);
#203=ORIENTED_EDGE('',*,*,#532,.T.);
#204=ORIENTED_EDGE('',*,*,#477,.T.);
#205=ORIENTED_EDGE('',*,*,#533,.F.);
#206=ORIENTED_EDGE('',*,*,#534,.F.);
#207=ORIENTED_EDGE('',*,*,#526,.F.);
#208=ORIENTED_EDGE('',*,*,#535,.T.);
#209=ORIENTED_EDGE('',*,*,#534,.T.);
#210=ORIENTED_EDGE('',*,*,#536,.T.);
#211=ORIENTED_EDGE('',*,*,#533,.T.);
#212=ORIENTED_EDGE('',*,*,#476,.T.);
#213=ORIENTED_EDGE('',*,*,#527,.F.);
#214=ORIENTED_EDGE('',*,*,#536,.F.);
#215=ORIENTED_EDGE('',*,*,#537,.T.);
#216=ORIENTED_EDGE('',*,*,#538,.T.);
#217=ORIENTED_EDGE('',*,*,#539,.T.);
#218=ORIENTED_EDGE('',*,*,#530,.T.);
#219=ORIENTED_EDGE('',*,*,#540,.F.);
#220=ORIENTED_EDGE('',*,*,#541,.T.);
#221=ORIENTED_EDGE('',*,*,#528,.F.);
#222=ORIENTED_EDGE('',*,*,#535,.F.);
#223=ORIENTED_EDGE('',*,*,#525,.F.);
#224=ORIENTED_EDGE('',*,*,#540,.T.);
#225=ORIENTED_EDGE('',*,*,#542,.T.);
#226=ORIENTED_EDGE('',*,*,#522,.F.);
#227=ORIENTED_EDGE('',*,*,#543,.T.);
#228=ORIENTED_EDGE('',*,*,#516,.F.);
#229=ORIENTED_EDGE('',*,*,#544,.T.);
#230=ORIENTED_EDGE('',*,*,#492,.F.);
#231=ORIENTED_EDGE('',*,*,#455,.F.);
#232=ORIENTED_EDGE('',*,*,#545,.F.);
#233=ORIENTED_EDGE('',*,*,#512,.F.);
#234=ORIENTED_EDGE('',*,*,#545,.T.);
#235=ORIENTED_EDGE('',*,*,#471,.F.);
#236=ORIENTED_EDGE('',*,*,#546,.F.);
#237=ORIENTED_EDGE('',*,*,#506,.F.);
#238=ORIENTED_EDGE('',*,*,#532,.F.);
#239=ORIENTED_EDGE('',*,*,#507,.F.);
#240=ORIENTED_EDGE('',*,*,#546,.T.);
#241=ORIENTED_EDGE('',*,*,#478,.F.);
#242=ORIENTED_EDGE('',*,*,#539,.F.);
#243=ORIENTED_EDGE('',*,*,#547,.T.);
#244=ORIENTED_EDGE('',*,*,#548,.F.);
#245=ORIENTED_EDGE('',*,*,#509,.F.);
#246=ORIENTED_EDGE('',*,*,#531,.F.);
#247=ORIENTED_EDGE('',*,*,#548,.T.);
#248=ORIENTED_EDGE('',*,*,#549,.T.);
#249=ORIENTED_EDGE('',*,*,#520,.F.);
#250=ORIENTED_EDGE('',*,*,#550,.T.);
#251=ORIENTED_EDGE('',*,*,#551,.F.);
#252=ORIENTED_EDGE('',*,*,#510,.F.);
#253=ORIENTED_EDGE('',*,*,#551,.T.);
#254=ORIENTED_EDGE('',*,*,#552,.T.);
#255=ORIENTED_EDGE('',*,*,#505,.F.);
#256=ORIENTED_EDGE('',*,*,#494,.F.);
#257=ORIENTED_EDGE('',*,*,#511,.F.);
#258=ORIENTED_EDGE('',*,*,#524,.F.);
#259=ORIENTED_EDGE('',*,*,#517,.F.);
#260=ORIENTED_EDGE('',*,*,#553,.F.);
#261=ORIENTED_EDGE('',*,*,#537,.F.);
#262=ORIENTED_EDGE('',*,*,#529,.F.);
#263=ORIENTED_EDGE('',*,*,#541,.F.);
#264=ORIENTED_EDGE('',*,*,#542,.F.);
#265=ORIENTED_EDGE('',*,*,#553,.T.);
#266=ORIENTED_EDGE('',*,*,#543,.F.);
#267=ORIENTED_EDGE('',*,*,#554,.F.);
#268=ORIENTED_EDGE('',*,*,#547,.F.);
#269=ORIENTED_EDGE('',*,*,#538,.F.);
#270=ORIENTED_EDGE('',*,*,#554,.T.);
#271=ORIENTED_EDGE('',*,*,#521,.F.);
#272=ORIENTED_EDGE('',*,*,#549,.F.);
#273=ORIENTED_EDGE('',*,*,#550,.F.);
#274=ORIENTED_EDGE('',*,*,#523,.F.);
#275=ORIENTED_EDGE('',*,*,#555,.F.);
#276=ORIENTED_EDGE('',*,*,#503,.F.);
#277=ORIENTED_EDGE('',*,*,#552,.F.);
#278=ORIENTED_EDGE('',*,*,#555,.T.);
#279=ORIENTED_EDGE('',*,*,#544,.F.);
#280=ORIENTED_EDGE('',*,*,#556,.F.);
#281=ORIENTED_EDGE('',*,*,#556,.T.);
#282=ORIENTED_EDGE('',*,*,#519,.F.);
#283=ORIENTED_EDGE('',*,*,#484,.F.);
#284=ORIENTED_EDGE('',*,*,#515,.F.);
#285=ORIENTED_EDGE('',*,*,#513,.F.);
#286=ORIENTED_EDGE('',*,*,#489,.F.);
#287=ORIENTED_EDGE('',*,*,#504,.F.);
#288=ORIENTED_EDGE('',*,*,#557,.T.);
#289=ORIENTED_EDGE('',*,*,#558,.T.);
#290=ORIENTED_EDGE('',*,*,#559,.T.);
#291=ORIENTED_EDGE('',*,*,#560,.F.);
#292=ORIENTED_EDGE('',*,*,#561,.T.);
#293=ORIENTED_EDGE('',*,*,#562,.T.);
#294=ORIENTED_EDGE('',*,*,#557,.F.);
#295=ORIENTED_EDGE('',*,*,#563,.T.);
#296=ORIENTED_EDGE('',*,*,#564,.T.);
#297=ORIENTED_EDGE('',*,*,#565,.T.);
#298=ORIENTED_EDGE('',*,*,#560,.T.);
#299=ORIENTED_EDGE('',*,*,#566,.T.);
#300=ORIENTED_EDGE('',*,*,#567,.T.);
#301=ORIENTED_EDGE('',*,*,#568,.T.);
#302=ORIENTED_EDGE('',*,*,#569,.F.);
#303=ORIENTED_EDGE('',*,*,#570,.T.);
#304=ORIENTED_EDGE('',*,*,#571,.T.);
#305=ORIENTED_EDGE('',*,*,#572,.T.);
#306=ORIENTED_EDGE('',*,*,#573,.T.);
#307=ORIENTED_EDGE('',*,*,#574,.T.);
#308=ORIENTED_EDGE('',*,*,#574,.F.);
#309=ORIENTED_EDGE('',*,*,#575,.T.);
#310=ORIENTED_EDGE('',*,*,#576,.T.);
#311=ORIENTED_EDGE('',*,*,#577,.T.);
#312=ORIENTED_EDGE('',*,*,#569,.T.);
#313=ORIENTED_EDGE('',*,*,#578,.T.);
#314=ORIENTED_EDGE('',*,*,#579,.T.);
#315=ORIENTED_EDGE('',*,*,#580,.T.);
#316=ORIENTED_EDGE('',*,*,#567,.F.);
#317=ORIENTED_EDGE('',*,*,#581,.F.);
#318=ORIENTED_EDGE('',*,*,#468,.F.);
#319=ORIENTED_EDGE('',*,*,#582,.F.);
#320=ORIENTED_EDGE('',*,*,#566,.F.);
#321=ORIENTED_EDGE('',*,*,#562,.F.);
#322=ORIENTED_EDGE('',*,*,#583,.F.);
#323=ORIENTED_EDGE('',*,*,#469,.F.);
#324=ORIENTED_EDGE('',*,*,#581,.T.);
#325=ORIENTED_EDGE('',*,*,#582,.T.);
#326=ORIENTED_EDGE('',*,*,#467,.F.);
#327=ORIENTED_EDGE('',*,*,#584,.F.);
#328=ORIENTED_EDGE('',*,*,#558,.F.);
#329=ORIENTED_EDGE('',*,*,#568,.F.);
#330=ORIENTED_EDGE('',*,*,#561,.F.);
#331=ORIENTED_EDGE('',*,*,#565,.F.);
#332=ORIENTED_EDGE('',*,*,#585,.F.);
#333=ORIENTED_EDGE('',*,*,#479,.F.);
#334=ORIENTED_EDGE('',*,*,#583,.T.);
#335=ORIENTED_EDGE('',*,*,#584,.T.);
#336=ORIENTED_EDGE('',*,*,#473,.F.);
#337=ORIENTED_EDGE('',*,*,#586,.F.);
#338=ORIENTED_EDGE('',*,*,#563,.F.);
#339=ORIENTED_EDGE('',*,*,#559,.F.);
#340=ORIENTED_EDGE('',*,*,#585,.T.);
#341=ORIENTED_EDGE('',*,*,#564,.F.);
#342=ORIENTED_EDGE('',*,*,#586,.T.);
#343=ORIENTED_EDGE('',*,*,#472,.F.);
#344=ORIENTED_EDGE('',*,*,#579,.F.);
#345=ORIENTED_EDGE('',*,*,#587,.F.);
#346=ORIENTED_EDGE('',*,*,#463,.F.);
#347=ORIENTED_EDGE('',*,*,#588,.F.);
#348=ORIENTED_EDGE('',*,*,#578,.F.);
#349=ORIENTED_EDGE('',*,*,#571,.F.);
#350=ORIENTED_EDGE('',*,*,#589,.F.);
#351=ORIENTED_EDGE('',*,*,#464,.F.);
#352=ORIENTED_EDGE('',*,*,#587,.T.);
#353=ORIENTED_EDGE('',*,*,#588,.T.);
#354=ORIENTED_EDGE('',*,*,#462,.F.);
#355=ORIENTED_EDGE('',*,*,#590,.F.);
#356=ORIENTED_EDGE('',*,*,#572,.F.);
#357=ORIENTED_EDGE('',*,*,#580,.F.);
#358=ORIENTED_EDGE('',*,*,#570,.F.);
#359=ORIENTED_EDGE('',*,*,#577,.F.);
#360=ORIENTED_EDGE('',*,*,#591,.F.);
#361=ORIENTED_EDGE('',*,*,#461,.F.);
#362=ORIENTED_EDGE('',*,*,#589,.T.);
#363=ORIENTED_EDGE('',*,*,#590,.T.);
#364=ORIENTED_EDGE('',*,*,#453,.F.);
#365=ORIENTED_EDGE('',*,*,#592,.F.);
#366=ORIENTED_EDGE('',*,*,#575,.F.);
#367=ORIENTED_EDGE('',*,*,#573,.F.);
#368=ORIENTED_EDGE('',*,*,#591,.T.);
#369=ORIENTED_EDGE('',*,*,#576,.F.);
#370=ORIENTED_EDGE('',*,*,#592,.T.);
#371=ORIENTED_EDGE('',*,*,#452,.F.);
#372=ORIENTED_EDGE('',*,*,#593,.F.);
#373=ORIENTED_EDGE('',*,*,#594,.T.);
#374=ORIENTED_EDGE('',*,*,#499,.T.);
#375=ORIENTED_EDGE('',*,*,#595,.T.);
#376=ORIENTED_EDGE('',*,*,#497,.F.);
#377=ORIENTED_EDGE('',*,*,#596,.T.);
#378=ORIENTED_EDGE('',*,*,#597,.T.);
#379=ORIENTED_EDGE('',*,*,#598,.T.);
#380=ORIENTED_EDGE('',*,*,#597,.F.);
#381=ORIENTED_EDGE('',*,*,#599,.T.);
#382=ORIENTED_EDGE('',*,*,#593,.T.);
#383=ORIENTED_EDGE('',*,*,#600,.T.);
#384=ORIENTED_EDGE('',*,*,#595,.F.);
#385=ORIENTED_EDGE('',*,*,#498,.F.);
#386=ORIENTED_EDGE('',*,*,#598,.F.);
#387=ORIENTED_EDGE('',*,*,#600,.F.);
#388=ORIENTED_EDGE('',*,*,#601,.T.);
#389=ORIENTED_EDGE('',*,*,#602,.T.);
#390=ORIENTED_EDGE('',*,*,#603,.F.);
#391=ORIENTED_EDGE('',*,*,#604,.F.);
#392=ORIENTED_EDGE('',*,*,#605,.F.);
#393=ORIENTED_EDGE('',*,*,#606,.T.);
#394=ORIENTED_EDGE('',*,*,#607,.T.);
#395=ORIENTED_EDGE('',*,*,#608,.T.);
#396=ORIENTED_EDGE('',*,*,#605,.T.);
#397=ORIENTED_EDGE('',*,*,#609,.T.);
#398=ORIENTED_EDGE('',*,*,#610,.F.);
#399=ORIENTED_EDGE('',*,*,#611,.T.);
#400=ORIENTED_EDGE('',*,*,#612,.T.);
#401=ORIENTED_EDGE('',*,*,#613,.T.);
#402=ORIENTED_EDGE('',*,*,#614,.F.);
#403=ORIENTED_EDGE('',*,*,#615,.T.);
#404=ORIENTED_EDGE('',*,*,#603,.T.);
#405=ORIENTED_EDGE('',*,*,#616,.T.);
#406=ORIENTED_EDGE('',*,*,#617,.T.);
#407=ORIENTED_EDGE('',*,*,#618,.T.);
#408=ORIENTED_EDGE('',*,*,#610,.T.);
#409=ORIENTED_EDGE('',*,*,#619,.T.);
#410=ORIENTED_EDGE('',*,*,#614,.T.);
#411=ORIENTED_EDGE('',*,*,#620,.T.);
#412=ORIENTED_EDGE('',*,*,#609,.F.);
#413=ORIENTED_EDGE('',*,*,#604,.T.);
#414=ORIENTED_EDGE('',*,*,#615,.F.);
#415=ORIENTED_EDGE('',*,*,#619,.F.);
#416=ORIENTED_EDGE('',*,*,#621,.F.);
#417=ORIENTED_EDGE('',*,*,#607,.F.);
#418=ORIENTED_EDGE('',*,*,#622,.F.);
#419=ORIENTED_EDGE('',*,*,#594,.F.);
#420=ORIENTED_EDGE('',*,*,#606,.F.);
#421=ORIENTED_EDGE('',*,*,#613,.F.);
#422=ORIENTED_EDGE('',*,*,#623,.F.);
#423=ORIENTED_EDGE('',*,*,#500,.F.);
#424=ORIENTED_EDGE('',*,*,#622,.T.);
#425=ORIENTED_EDGE('',*,*,#621,.T.);
#426=ORIENTED_EDGE('',*,*,#599,.F.);
#427=ORIENTED_EDGE('',*,*,#624,.F.);
#428=ORIENTED_EDGE('',*,*,#608,.F.);
#429=ORIENTED_EDGE('',*,*,#612,.F.);
#430=ORIENTED_EDGE('',*,*,#625,.F.);
#431=ORIENTED_EDGE('',*,*,#501,.F.);
#432=ORIENTED_EDGE('',*,*,#623,.T.);
#433=ORIENTED_EDGE('',*,*,#624,.T.);
#434=ORIENTED_EDGE('',*,*,#596,.F.);
#435=ORIENTED_EDGE('',*,*,#626,.F.);
#436=ORIENTED_EDGE('',*,*,#601,.F.);
#437=ORIENTED_EDGE('',*,*,#620,.F.);
#438=ORIENTED_EDGE('',*,*,#618,.F.);
#439=ORIENTED_EDGE('',*,*,#627,.F.);
#440=ORIENTED_EDGE('',*,*,#502,.F.);
#441=ORIENTED_EDGE('',*,*,#625,.T.);
#442=ORIENTED_EDGE('',*,*,#611,.F.);
#443=ORIENTED_EDGE('',*,*,#626,.T.);
#444=ORIENTED_EDGE('',*,*,#496,.F.);
#445=ORIENTED_EDGE('',*,*,#628,.F.);
#446=ORIENTED_EDGE('',*,*,#616,.F.);
#447=ORIENTED_EDGE('',*,*,#602,.F.);
#448=ORIENTED_EDGE('',*,*,#627,.T.);
#449=ORIENTED_EDGE('',*,*,#617,.F.);
#450=ORIENTED_EDGE('',*,*,#628,.T.);
#451=ORIENTED_EDGE('',*,*,#495,.F.);
#452=EDGE_CURVE('',#629,#630,#741,.T.);
#453=EDGE_CURVE('',#630,#631,#742,.T.);
#454=EDGE_CURVE('',#631,#632,#743,.T.);
#455=EDGE_CURVE('',#632,#633,#744,.T.);
#456=EDGE_CURVE('',#633,#634,#745,.T.);
#457=EDGE_CURVE('',#635,#634,#746,.T.);
#458=EDGE_CURVE('',#636,#635,#747,.T.);
#459=EDGE_CURVE('',#637,#636,#748,.T.);
#460=EDGE_CURVE('',#637,#638,#749,.T.);
#461=EDGE_CURVE('',#638,#629,#750,.F.);
#462=EDGE_CURVE('',#631,#639,#751,.T.);
#463=EDGE_CURVE('',#639,#640,#752,.T.);
#464=EDGE_CURVE('',#640,#638,#753,.F.);
#465=EDGE_CURVE('',#637,#641,#754,.T.);
#466=EDGE_CURVE('',#642,#641,#755,.T.);
#467=EDGE_CURVE('',#642,#643,#756,.T.);
#468=EDGE_CURVE('',#643,#644,#757,.T.);
#469=EDGE_CURVE('',#644,#645,#758,.F.);
#470=EDGE_CURVE('',#646,#645,#759,.T.);
#471=EDGE_CURVE('',#646,#632,#760,.T.);
#472=EDGE_CURVE('',#647,#648,#761,.T.);
#473=EDGE_CURVE('',#648,#642,#762,.T.);
#474=EDGE_CURVE('',#641,#649,#763,.T.);
#475=EDGE_CURVE('',#649,#650,#764,.T.);
#476=EDGE_CURVE('',#651,#650,#765,.T.);
#477=EDGE_CURVE('',#652,#651,#766,.T.);
#478=EDGE_CURVE('',#652,#646,#767,.T.);
#479=EDGE_CURVE('',#645,#647,#768,.F.);
#480=EDGE_CURVE('',#636,#653,#769,.T.);
#481=EDGE_CURVE('',#654,#635,#770,.T.);
#482=EDGE_CURVE('',#655,#654,#771,.T.);
#483=EDGE_CURVE('',#655,#656,#80,.F.);
#484=EDGE_CURVE('',#656,#653,#81,.F.);
#485=EDGE_CURVE('',#657,#658,#772,.T.);
#486=EDGE_CURVE('',#657,#655,#773,.F.);
#487=EDGE_CURVE('',#654,#658,#774,.T.);
#488=EDGE_CURVE('',#659,#660,#775,.T.);
#489=EDGE_CURVE('',#660,#661,#82,.F.);
#490=EDGE_CURVE('',#661,#657,#83,.T.);
#491=EDGE_CURVE('',#658,#634,#776,.T.);
#492=EDGE_CURVE('',#633,#662,#777,.F.);
#493=EDGE_CURVE('',#662,#663,#778,.T.);
#494=EDGE_CURVE('',#663,#659,#779,.F.);
#495=EDGE_CURVE('',#664,#665,#780,.T.);
#496=EDGE_CURVE('',#665,#666,#781,.F.);
#497=EDGE_CURVE('',#666,#667,#782,.T.);
#498=EDGE_CURVE('',#667,#668,#783,.T.);
#499=EDGE_CURVE('',#669,#668,#784,.T.);
#500=EDGE_CURVE('',#669,#670,#785,.F.);
#501=EDGE_CURVE('',#670,#671,#786,.F.);
#502=EDGE_CURVE('',#671,#664,#787,.T.);
#503=EDGE_CURVE('',#672,#673,#788,.F.);
#504=EDGE_CURVE('',#673,#660,#789,.T.);
#505=EDGE_CURVE('',#659,#672,#790,.T.);
#506=EDGE_CURVE('',#674,#675,#791,.T.);
#507=EDGE_CURVE('',#675,#676,#792,.T.);
#508=EDGE_CURVE('',#677,#676,#793,.T.);
#509=EDGE_CURVE('',#677,#678,#794,.T.);
#510=EDGE_CURVE('',#678,#679,#795,.T.);
#511=EDGE_CURVE('',#679,#663,#796,.T.);
#512=EDGE_CURVE('',#662,#674,#797,.T.);
#513=EDGE_CURVE('',#661,#680,#798,.T.);
#514=EDGE_CURVE('',#656,#680,#84,.F.);
#515=EDGE_CURVE('',#680,#656,#85,.F.);
#516=EDGE_CURVE('',#681,#682,#799,.F.);
#517=EDGE_CURVE('',#682,#683,#800,.T.);
#518=EDGE_CURVE('',#683,#649,#801,.T.);
#519=EDGE_CURVE('',#653,#681,#802,.F.);
#520=EDGE_CURVE('',#684,#685,#803,.T.);
#521=EDGE_CURVE('',#685,#686,#804,.T.);
#522=EDGE_CURVE('',#686,#687,#805,.T.);
#523=EDGE_CURVE('',#687,#684,#806,.T.);
#524=EDGE_CURVE('',#683,#688,#86,.T.);
#525=EDGE_CURVE('',#688,#689,#87,.T.);
#526=EDGE_CURVE('',#689,#690,#807,.T.);
#527=EDGE_CURVE('',#690,#650,#808,.T.);
#528=EDGE_CURVE('',#691,#692,#88,.F.);
#529=EDGE_CURVE('',#692,#693,#89,.T.);
#530=EDGE_CURVE('',#694,#693,#809,.T.);
#531=EDGE_CURVE('',#694,#677,#810,.T.);
#532=EDGE_CURVE('',#676,#652,#811,.F.);
#533=EDGE_CURVE('',#695,#651,#812,.T.);
#534=EDGE_CURVE('',#691,#695,#813,.T.);
#535=EDGE_CURVE('',#689,#691,#814,.F.);
#536=EDGE_CURVE('',#695,#690,#815,.T.);
#537=EDGE_CURVE('',#693,#696,#816,.F.);
#538=EDGE_CURVE('',#696,#697,#817,.F.);
#539=EDGE_CURVE('',#697,#694,#818,.T.);
#540=EDGE_CURVE('',#698,#688,#90,.T.);
#541=EDGE_CURVE('',#698,#692,#819,.T.);
#542=EDGE_CURVE('',#688,#698,#91,.F.);
#543=EDGE_CURVE('',#686,#682,#92,.F.);
#544=EDGE_CURVE('',#681,#687,#93,.T.);
#545=EDGE_CURVE('',#674,#632,#820,.F.);
#546=EDGE_CURVE('',#675,#646,#821,.F.);
#547=EDGE_CURVE('',#697,#699,#14,.T.);
#548=EDGE_CURVE('',#678,#699,#822,.T.);
#549=EDGE_CURVE('',#699,#685,#15,.F.);
#550=EDGE_CURVE('',#684,#700,#16,.F.);
#551=EDGE_CURVE('',#679,#700,#823,.F.);
#552=EDGE_CURVE('',#700,#672,#17,.F.);
#553=EDGE_CURVE('',#696,#682,#94,.T.);
#554=EDGE_CURVE('',#696,#686,#95,.T.);
#555=EDGE_CURVE('',#673,#687,#96,.T.);
#556=EDGE_CURVE('',#673,#681,#97,.T.);
#557=EDGE_CURVE('',#701,#702,#824,.T.);
#558=EDGE_CURVE('',#702,#703,#825,.F.);
#559=EDGE_CURVE('',#703,#701,#826,.F.);
#560=EDGE_CURVE('',#704,#705,#827,.T.);
#561=EDGE_CURVE('',#704,#706,#828,.T.);
#562=EDGE_CURVE('',#706,#705,#829,.T.);
#563=EDGE_CURVE('',#701,#707,#18,.F.);
#564=EDGE_CURVE('',#707,#708,#830,.F.);
#565=EDGE_CURVE('',#708,#704,#19,.F.);
#566=EDGE_CURVE('',#705,#709,#20,.F.);
#567=EDGE_CURVE('',#709,#710,#831,.F.);
#568=EDGE_CURVE('',#710,#702,#21,.F.);
#569=EDGE_CURVE('',#711,#712,#832,.T.);
#570=EDGE_CURVE('',#711,#713,#833,.T.);
#571=EDGE_CURVE('',#713,#712,#834,.T.);
#572=EDGE_CURVE('',#714,#715,#835,.F.);
#573=EDGE_CURVE('',#715,#716,#836,.F.);
#574=EDGE_CURVE('',#716,#714,#837,.T.);
#575=EDGE_CURVE('',#716,#717,#22,.F.);
#576=EDGE_CURVE('',#717,#718,#838,.F.);
#577=EDGE_CURVE('',#718,#711,#23,.F.);
#578=EDGE_CURVE('',#712,#719,#24,.F.);
#579=EDGE_CURVE('',#719,#720,#839,.F.);
#580=EDGE_CURVE('',#720,#714,#25,.F.);
#581=EDGE_CURVE('',#644,#709,#26,.T.);
#582=EDGE_CURVE('',#710,#643,#27,.F.);
#583=EDGE_CURVE('',#645,#706,#28,.T.);
#584=EDGE_CURVE('',#703,#642,#29,.F.);
#585=EDGE_CURVE('',#647,#708,#30,.T.);
#586=EDGE_CURVE('',#707,#648,#31,.F.);
#587=EDGE_CURVE('',#640,#719,#32,.T.);
#588=EDGE_CURVE('',#720,#639,#33,.F.);
#589=EDGE_CURVE('',#638,#713,#34,.T.);
#590=EDGE_CURVE('',#715,#631,#35,.F.);
#591=EDGE_CURVE('',#629,#718,#36,.T.);
#592=EDGE_CURVE('',#717,#630,#37,.F.);
#593=EDGE_CURVE('',#721,#722,#840,.T.);
#594=EDGE_CURVE('',#721,#669,#841,.F.);
#595=EDGE_CURVE('',#668,#722,#842,.T.);
#596=EDGE_CURVE('',#666,#723,#843,.F.);
#597=EDGE_CURVE('',#723,#724,#844,.T.);
#598=EDGE_CURVE('',#724,#667,#845,.T.);
#599=EDGE_CURVE('',#723,#721,#846,.F.);
#600=EDGE_CURVE('',#722,#724,#847,.T.);
#601=EDGE_CURVE('',#725,#726,#848,.T.);
#602=EDGE_CURVE('',#726,#727,#849,.T.);
#603=EDGE_CURVE('',#728,#727,#850,.T.);
#604=EDGE_CURVE('',#729,#728,#851,.T.);
#605=EDGE_CURVE('',#730,#729,#852,.T.);
#606=EDGE_CURVE('',#730,#731,#853,.T.);
#607=EDGE_CURVE('',#731,#732,#854,.T.);
#608=EDGE_CURVE('',#732,#725,#855,.T.);
#609=EDGE_CURVE('',#729,#733,#38,.F.);
#610=EDGE_CURVE('',#734,#733,#856,.T.);
#611=EDGE_CURVE('',#734,#735,#39,.T.);
#612=EDGE_CURVE('',#735,#736,#857,.T.);
#613=EDGE_CURVE('',#736,#730,#40,.T.);
#614=EDGE_CURVE('',#737,#738,#858,.T.);
#615=EDGE_CURVE('',#737,#728,#41,.F.);
#616=EDGE_CURVE('',#727,#739,#42,.T.);
#617=EDGE_CURVE('',#739,#740,#859,.F.);
#618=EDGE_CURVE('',#740,#738,#43,.T.);
#619=EDGE_CURVE('',#733,#737,#860,.T.);
#620=EDGE_CURVE('',#738,#734,#861,.F.);
#621=EDGE_CURVE('',#732,#721,#44,.T.);
#622=EDGE_CURVE('',#669,#731,#45,.T.);
#623=EDGE_CURVE('',#670,#736,#46,.T.);
#624=EDGE_CURVE('',#725,#723,#47,.T.);
#625=EDGE_CURVE('',#671,#735,#48,.T.);
#626=EDGE_CURVE('',#726,#666,#49,.F.);
#627=EDGE_CURVE('',#664,#740,#50,.T.);
#628=EDGE_CURVE('',#739,#665,#51,.F.);
#629=VERTEX_POINT('',#1738);
#630=VERTEX_POINT('',#1739);
#631=VERTEX_POINT('',#1741);
#632=VERTEX_POINT('',#1743);
#633=VERTEX_POINT('',#1745);
#634=VERTEX_POINT('',#1747);
#635=VERTEX_POINT('',#1749);
#636=VERTEX_POINT('',#1751);
#637=VERTEX_POINT('',#1753);
#638=VERTEX_POINT('',#1755);
#639=VERTEX_POINT('',#1759);
#640=VERTEX_POINT('',#1761);
#641=VERTEX_POINT('',#1764);
#642=VERTEX_POINT('',#1766);
#643=VERTEX_POINT('',#1768);
#644=VERTEX_POINT('',#1770);
#645=VERTEX_POINT('',#1772);
#646=VERTEX_POINT('',#1774);
#647=VERTEX_POINT('',#1778);
#648=VERTEX_POINT('',#1779);
#649=VERTEX_POINT('',#1782);
#650=VERTEX_POINT('',#1784);
#651=VERTEX_POINT('',#1786);
#652=VERTEX_POINT('',#1788);
#653=VERTEX_POINT('',#1793);
#654=VERTEX_POINT('',#1795);
#655=VERTEX_POINT('',#1797);
#656=VERTEX_POINT('',#1799);
#657=VERTEX_POINT('',#1803);
#658=VERTEX_POINT('',#1804);
#659=VERTEX_POINT('',#1809);
#660=VERTEX_POINT('',#1810);
#661=VERTEX_POINT('',#1812);
#662=VERTEX_POINT('',#1816);
#663=VERTEX_POINT('',#1818);
#664=VERTEX_POINT('',#1823);
#665=VERTEX_POINT('',#1824);
#666=VERTEX_POINT('',#1826);
#667=VERTEX_POINT('',#1828);
#668=VERTEX_POINT('',#1830);
#669=VERTEX_POINT('',#1832);
#670=VERTEX_POINT('',#1834);
#671=VERTEX_POINT('',#1836);
#672=VERTEX_POINT('',#1839);
#673=VERTEX_POINT('',#1840);
#674=VERTEX_POINT('',#1845);
#675=VERTEX_POINT('',#1846);
#676=VERTEX_POINT('',#1848);
#677=VERTEX_POINT('',#1850);
#678=VERTEX_POINT('',#1852);
#679=VERTEX_POINT('',#1854);
#680=VERTEX_POINT('',#1859);
#681=VERTEX_POINT('',#1865);
#682=VERTEX_POINT('',#1866);
#683=VERTEX_POINT('',#1868);
#684=VERTEX_POINT('',#1873);
#685=VERTEX_POINT('',#1874);
#686=VERTEX_POINT('',#1876);
#687=VERTEX_POINT('',#1878);
#688=VERTEX_POINT('',#1882);
#689=VERTEX_POINT('',#1884);
#690=VERTEX_POINT('',#1886);
#691=VERTEX_POINT('',#1890);
#692=VERTEX_POINT('',#1891);
#693=VERTEX_POINT('',#1893);
#694=VERTEX_POINT('',#1895);
#695=VERTEX_POINT('',#1899);
#696=VERTEX_POINT('',#1907);
#697=VERTEX_POINT('',#1909);
#698=VERTEX_POINT('',#1913);
#699=VERTEX_POINT('',#1927);
#700=VERTEX_POINT('',#1932);
#701=VERTEX_POINT('',#1948);
#702=VERTEX_POINT('',#1949);
#703=VERTEX_POINT('',#1951);
#704=VERTEX_POINT('',#1955);
#705=VERTEX_POINT('',#1956);
#706=VERTEX_POINT('',#1958);
#707=VERTEX_POINT('',#1962);
#708=VERTEX_POINT('',#1964);
#709=VERTEX_POINT('',#1967);
#710=VERTEX_POINT('',#1969);
#711=VERTEX_POINT('',#1973);
#712=VERTEX_POINT('',#1974);
#713=VERTEX_POINT('',#1976);
#714=VERTEX_POINT('',#1980);
#715=VERTEX_POINT('',#1981);
#716=VERTEX_POINT('',#1983);
#717=VERTEX_POINT('',#1987);
#718=VERTEX_POINT('',#1989);
#719=VERTEX_POINT('',#1992);
#720=VERTEX_POINT('',#1994);
#721=VERTEX_POINT('',#2022);
#722=VERTEX_POINT('',#2023);
#723=VERTEX_POINT('',#2028);
#724=VERTEX_POINT('',#2030);
#725=VERTEX_POINT('',#2038);
#726=VERTEX_POINT('',#2039);
#727=VERTEX_POINT('',#2041);
#728=VERTEX_POINT('',#2043);
#729=VERTEX_POINT('',#2045);
#730=VERTEX_POINT('',#2047);
#731=VERTEX_POINT('',#2049);
#732=VERTEX_POINT('',#2051);
#733=VERTEX_POINT('',#2055);
#734=VERTEX_POINT('',#2057);
#735=VERTEX_POINT('',#2059);
#736=VERTEX_POINT('',#2061);
#737=VERTEX_POINT('',#2065);
#738=VERTEX_POINT('',#2066);
#739=VERTEX_POINT('',#2069);
#740=VERTEX_POINT('',#2071);
#741=LINE('',#1737,#862);
#742=LINE('',#1740,#863);
#743=LINE('',#1742,#864);
#744=LINE('',#1744,#865);
#745=LINE('',#1746,#866);
#746=LINE('',#1748,#867);
#747=LINE('',#1750,#868);
#748=LINE('',#1752,#869);
#749=LINE('',#1754,#870);
#750=LINE('',#1756,#871);
#751=LINE('',#1758,#872);
#752=LINE('',#1760,#873);
#753=LINE('',#1762,#874);
#754=LINE('',#1763,#875);
#755=LINE('',#1765,#876);
#756=LINE('',#1767,#877);
#757=LINE('',#1769,#878);
#758=LINE('',#1771,#879);
#759=LINE('',#1773,#880);
#760=LINE('',#1775,#881);
#761=LINE('',#1777,#882);
#762=LINE('',#1780,#883);
#763=LINE('',#1781,#884);
#764=LINE('',#1783,#885);
#765=LINE('',#1785,#886);
#766=LINE('',#1787,#887);
#767=LINE('',#1789,#888);
#768=LINE('',#1790,#889);
#769=LINE('',#1792,#890);
#770=LINE('',#1794,#891);
#771=LINE('',#1796,#892);
#772=LINE('',#1802,#893);
#773=LINE('',#1805,#894);
#774=LINE('',#1806,#895);
#775=LINE('',#1808,#896);
#776=LINE('',#1814,#897);
#777=LINE('',#1815,#898);
#778=LINE('',#1817,#899);
#779=LINE('',#1819,#900);
#780=LINE('',#1822,#901);
#781=LINE('',#1825,#902);
#782=LINE('',#1827,#903);
#783=LINE('',#1829,#904);
#784=LINE('',#1831,#905);
#785=LINE('',#1833,#906);
#786=LINE('',#1835,#907);
#787=LINE('',#1837,#908);
#788=LINE('',#1838,#909);
#789=LINE('',#1841,#910);
#790=LINE('',#1842,#911);
#791=LINE('',#1844,#912);
#792=LINE('',#1847,#913);
#793=LINE('',#1849,#914);
#794=LINE('',#1851,#915);
#795=LINE('',#1853,#916);
#796=LINE('',#1855,#917);
#797=LINE('',#1856,#918);
#798=LINE('',#1858,#919);
#799=LINE('',#1864,#920);
#800=LINE('',#1867,#921);
#801=LINE('',#1869,#922);
#802=LINE('',#1870,#923);
#803=LINE('',#1872,#924);
#804=LINE('',#1875,#925);
#805=LINE('',#1877,#926);
#806=LINE('',#1879,#927);
#807=LINE('',#1885,#928);
#808=LINE('',#1887,#929);
#809=LINE('',#1894,#930);
#810=LINE('',#1896,#931);
#811=LINE('',#1897,#932);
#812=LINE('',#1898,#933);
#813=LINE('',#1900,#934);
#814=LINE('',#1902,#935);
#815=LINE('',#1903,#936);
#816=LINE('',#1906,#937);
#817=LINE('',#1908,#938);
#818=LINE('',#1910,#939);
#819=LINE('',#1914,#940);
#820=LINE('',#1921,#941);
#821=LINE('',#1923,#942);
#822=LINE('',#1928,#943);
#823=LINE('',#1933,#944);
#824=LINE('',#1947,#945);
#825=LINE('',#1950,#946);
#826=LINE('',#1952,#947);
#827=LINE('',#1954,#948);
#828=LINE('',#1957,#949);
#829=LINE('',#1959,#950);
#830=LINE('',#1963,#951);
#831=LINE('',#1968,#952);
#832=LINE('',#1972,#953);
#833=LINE('',#1975,#954);
#834=LINE('',#1977,#955);
#835=LINE('',#1979,#956);
#836=LINE('',#1982,#957);
#837=LINE('',#1984,#958);
#838=LINE('',#1988,#959);
#839=LINE('',#1993,#960);
#840=LINE('',#2021,#961);
#841=LINE('',#2024,#962);
#842=LINE('',#2025,#963);
#843=LINE('',#2027,#964);
#844=LINE('',#2029,#965);
#845=LINE('',#2031,#966);
#846=LINE('',#2033,#967);
#847=LINE('',#2034,#968);
#848=LINE('',#2037,#969);
#849=LINE('',#2040,#970);
#850=LINE('',#2042,#971);
#851=LINE('',#2044,#972);
#852=LINE('',#2046,#973);
#853=LINE('',#2048,#974);
#854=LINE('',#2050,#975);
#855=LINE('',#2052,#976);
#856=LINE('',#2056,#977);
#857=LINE('',#2060,#978);
#858=LINE('',#2064,#979);
#859=LINE('',#2070,#980);
#860=LINE('',#2074,#981);
#861=LINE('',#2075,#982);
#862=VECTOR('',#1368,1.);
#863=VECTOR('',#1369,1.);
#864=VECTOR('',#1370,1.);
#865=VECTOR('',#1371,1.);
#866=VECTOR('',#1372,1.);
#867=VECTOR('',#1373,1.);
#868=VECTOR('',#1374,1.);
#869=VECTOR('',#1375,1.);
#870=VECTOR('',#1376,1.);
#871=VECTOR('',#1377,1.);
#872=VECTOR('',#1380,1.);
#873=VECTOR('',#1381,1.);
#874=VECTOR('',#1382,1.);
#875=VECTOR('',#1383,1.);
#876=VECTOR('',#1384,1.);
#877=VECTOR('',#1385,1.);
#878=VECTOR('',#1386,1.);
#879=VECTOR('',#1387,1.);
#880=VECTOR('',#1388,1.);
#881=VECTOR('',#1389,1.);
#882=VECTOR('',#1392,1.);
#883=VECTOR('',#1393,1.);
#884=VECTOR('',#1394,1.);
#885=VECTOR('',#1395,1.);
#886=VECTOR('',#1396,1.);
#887=VECTOR('',#1397,1.);
#888=VECTOR('',#1398,1.);
#889=VECTOR('',#1399,1.);
#890=VECTOR('',#1402,1.);
#891=VECTOR('',#1403,1.);
#892=VECTOR('',#1404,1.);
#893=VECTOR('',#1411,1.);
#894=VECTOR('',#1412,1.);
#895=VECTOR('',#1413,1.);
#896=VECTOR('',#1416,1.);
#897=VECTOR('',#1421,1.);
#898=VECTOR('',#1422,1.);
#899=VECTOR('',#1423,1.);
#900=VECTOR('',#1424,1.);
#901=VECTOR('',#1429,1.);
#902=VECTOR('',#1430,1.);
#903=VECTOR('',#1431,1.);
#904=VECTOR('',#1432,1.);
#905=VECTOR('',#1433,1.);
#906=VECTOR('',#1434,1.);
#907=VECTOR('',#1435,1.);
#908=VECTOR('',#1436,1.);
#909=VECTOR('',#1437,1.);
#910=VECTOR('',#1438,1.);
#911=VECTOR('',#1439,1.);
#912=VECTOR('',#1442,1.);
#913=VECTOR('',#1443,1.);
#914=VECTOR('',#1444,1.);
#915=VECTOR('',#1445,1.);
#916=VECTOR('',#1446,1.);
#917=VECTOR('',#1447,1.);
#918=VECTOR('',#1448,1.);
#919=VECTOR('',#1451,1.);
#920=VECTOR('',#1460,1.);
#921=VECTOR('',#1461,1.);
#922=VECTOR('',#1462,1.);
#923=VECTOR('',#1463,1.);
#924=VECTOR('',#1466,1.);
#925=VECTOR('',#1467,1.);
#926=VECTOR('',#1468,1.);
#927=VECTOR('',#1469,1.);
#928=VECTOR('',#1476,1.);
#929=VECTOR('',#1477,1.);
#930=VECTOR('',#1484,1.);
#931=VECTOR('',#1485,1.);
#932=VECTOR('',#1486,1.);
#933=VECTOR('',#1487,1.);
#934=VECTOR('',#1488,1.);
#935=VECTOR('',#1491,1.);
#936=VECTOR('',#1492,1.);
#937=VECTOR('',#1497,1.);
#938=VECTOR('',#1498,1.);
#939=VECTOR('',#1499,1.);
#940=VECTOR('',#1504,1.);
#941=VECTOR('',#1517,1.);
#942=VECTOR('',#1520,1.);
#943=VECTOR('',#1527,1.);
#944=VECTOR('',#1534,1.);
#945=VECTOR('',#1561,1.);
#946=VECTOR('',#1562,1.);
#947=VECTOR('',#1563,1.);
#948=VECTOR('',#1566,1.);
#949=VECTOR('',#1567,1.);
#950=VECTOR('',#1568,1.);
#951=VECTOR('',#1573,1.);
#952=VECTOR('',#1578,1.);
#953=VECTOR('',#1583,1.);
#954=VECTOR('',#1584,1.);
#955=VECTOR('',#1585,1.);
#956=VECTOR('',#1588,1.);
#957=VECTOR('',#1589,1.);
#958=VECTOR('',#1590,1.);
#959=VECTOR('',#1595,1.);
#960=VECTOR('',#1600,1.);
#961=VECTOR('',#1653,1.);
#962=VECTOR('',#1654,1.);
#963=VECTOR('',#1655,1.);
#964=VECTOR('',#1658,1.);
#965=VECTOR('',#1659,1.);
#966=VECTOR('',#1660,1.);
#967=VECTOR('',#1663,1.);
#968=VECTOR('',#1664,1.);
#969=VECTOR('',#1669,1.);
#970=VECTOR('',#1670,1.);
#971=VECTOR('',#1671,1.);
#972=VECTOR('',#1672,1.);
#973=VECTOR('',#1673,1.);
#974=VECTOR('',#1674,1.);
#975=VECTOR('',#1675,1.);
#976=VECTOR('',#1676,1.);
#977=VECTOR('',#1681,1.);
#978=VECTOR('',#1684,1.);
#979=VECTOR('',#1689,1.);
#980=VECTOR('',#1694,1.);
#981=VECTOR('',#1699,1.);
#982=VECTOR('',#1700,1.);
#983=EDGE_LOOP('',(#98,#99,#100,#101,#102,#103,#104,#105,#106,#107));
#984=EDGE_LOOP('',(#108,#109,#110,#111,#112,#113,#114,#115,#116,#117,#118,
#119));
#985=EDGE_LOOP('',(#120,#121,#122,#123,#124,#125,#126,#127,#128,#129));
#986=EDGE_LOOP('',(#130,#131,#132,#133,#134,#135));
#987=EDGE_LOOP('',(#136,#137,#138,#139));
#988=EDGE_LOOP('',(#140,#141,#142,#143,#144,#145,#146,#147,#148));
#989=EDGE_LOOP('',(#149,#150,#151,#152));
#990=EDGE_LOOP('',(#153,#154,#155,#156,#157,#158,#159,#160));
#991=EDGE_LOOP('',(#161,#162,#163,#164));
#992=EDGE_LOOP('',(#165,#166,#167,#168,#169,#170,#171,#172));
#993=EDGE_LOOP('',(#173,#174,#175,#176,#177));
#994=EDGE_LOOP('',(#178,#179));
#995=EDGE_LOOP('',(#180,#181,#182,#183,#184,#185,#186,#187));
#996=EDGE_LOOP('',(#188,#189,#190,#191));
#997=EDGE_LOOP('',(#192,#193,#194,#195,#196,#197));
#998=EDGE_LOOP('',(#198,#199,#200,#201,#202,#203,#204,#205,#206));
#999=EDGE_LOOP('',(#207,#208,#209,#210));
#1000=EDGE_LOOP('',(#211,#212,#213,#214));
#1001=EDGE_LOOP('',(#215,#216,#217,#218));
#1002=EDGE_LOOP('',(#219,#220,#221,#222,#223));
#1003=EDGE_LOOP('',(#224,#225));
#1004=EDGE_LOOP('',(#226,#227,#228,#229));
#1005=EDGE_LOOP('',(#230,#231,#232,#233));
#1006=EDGE_LOOP('',(#234,#235,#236,#237));
#1007=EDGE_LOOP('',(#238,#239,#240,#241));
#1008=EDGE_LOOP('',(#242,#243,#244,#245,#246));
#1009=EDGE_LOOP('',(#247,#248,#249,#250,#251,#252));
#1010=EDGE_LOOP('',(#253,#254,#255,#256,#257));
#1011=EDGE_LOOP('',(#258,#259,#260,#261,#262,#263,#264));
#1012=EDGE_LOOP('',(#265,#266,#267));
#1013=EDGE_LOOP('',(#268,#269,#270,#271,#272));
#1014=EDGE_LOOP('',(#273,#274,#275,#276,#277));
#1015=EDGE_LOOP('',(#278,#279,#280));
#1016=EDGE_LOOP('',(#281,#282,#283,#284,#285,#286,#287));
#1017=EDGE_LOOP('',(#288,#289,#290));
#1018=EDGE_LOOP('',(#291,#292,#293));
#1019=EDGE_LOOP('',(#294,#295,#296,#297,#298,#299,#300,#301));
#1020=EDGE_LOOP('',(#302,#303,#304));
#1021=EDGE_LOOP('',(#305,#306,#307));
#1022=EDGE_LOOP('',(#308,#309,#310,#311,#312,#313,#314,#315));
#1023=EDGE_LOOP('',(#316,#317,#318,#319));
#1024=EDGE_LOOP('',(#320,#321,#322,#323,#324));
#1025=EDGE_LOOP('',(#325,#326,#327,#328,#329));
#1026=EDGE_LOOP('',(#330,#331,#332,#333,#334));
#1027=EDGE_LOOP('',(#335,#336,#337,#338,#339));
#1028=EDGE_LOOP('',(#340,#341,#342,#343));
#1029=EDGE_LOOP('',(#344,#345,#346,#347));
#1030=EDGE_LOOP('',(#348,#349,#350,#351,#352));
#1031=EDGE_LOOP('',(#353,#354,#355,#356,#357));
#1032=EDGE_LOOP('',(#358,#359,#360,#361,#362));
#1033=EDGE_LOOP('',(#363,#364,#365,#366,#367));
#1034=EDGE_LOOP('',(#368,#369,#370,#371));
#1035=EDGE_LOOP('',(#372,#373,#374,#375));
#1036=EDGE_LOOP('',(#376,#377,#378,#379));
#1037=EDGE_LOOP('',(#380,#381,#382,#383));
#1038=EDGE_LOOP('',(#384,#385,#386,#387));
#1039=EDGE_LOOP('',(#388,#389,#390,#391,#392,#393,#394,#395));
#1040=EDGE_LOOP('',(#396,#397,#398,#399,#400,#401));
#1041=EDGE_LOOP('',(#402,#403,#404,#405,#406,#407));
#1042=EDGE_LOOP('',(#408,#409,#410,#411));
#1043=EDGE_LOOP('',(#412,#413,#414,#415));
#1044=EDGE_LOOP('',(#416,#417,#418,#419));
#1045=EDGE_LOOP('',(#420,#421,#422,#423,#424));
#1046=EDGE_LOOP('',(#425,#426,#427,#428));
#1047=EDGE_LOOP('',(#429,#430,#431,#432));
#1048=EDGE_LOOP('',(#433,#434,#435,#436));
#1049=EDGE_LOOP('',(#437,#438,#439,#440,#441,#442));
#1050=EDGE_LOOP('',(#443,#444,#445,#446,#447));
#1051=EDGE_LOOP('',(#448,#449,#450,#451));
#1052=FACE_BOUND('',#983,.T.);
#1053=FACE_BOUND('',#984,.T.);
#1054=FACE_BOUND('',#985,.T.);
#1055=FACE_BOUND('',#986,.T.);
#1056=FACE_BOUND('',#987,.T.);
#1057=FACE_BOUND('',#988,.T.);
#1058=FACE_BOUND('',#989,.T.);
#1059=FACE_BOUND('',#990,.T.);
#1060=FACE_BOUND('',#991,.T.);
#1061=FACE_BOUND('',#992,.T.);
#1062=FACE_BOUND('',#993,.T.);
#1063=FACE_BOUND('',#994,.T.);
#1064=FACE_BOUND('',#995,.T.);
#1065=FACE_BOUND('',#996,.T.);
#1066=FACE_BOUND('',#997,.T.);
#1067=FACE_BOUND('',#998,.T.);
#1068=FACE_BOUND('',#999,.T.);
#1069=FACE_BOUND('',#1000,.T.);
#1070=FACE_BOUND('',#1001,.T.);
#1071=FACE_BOUND('',#1002,.T.);
#1072=FACE_BOUND('',#1003,.T.);
#1073=FACE_BOUND('',#1004,.T.);
#1074=FACE_BOUND('',#1005,.T.);
#1075=FACE_BOUND('',#1006,.T.);
#1076=FACE_BOUND('',#1007,.T.);
#1077=FACE_BOUND('',#1008,.T.);
#1078=FACE_BOUND('',#1009,.T.);
#1079=FACE_BOUND('',#1010,.T.);
#1080=FACE_BOUND('',#1011,.T.);
#1081=FACE_BOUND('',#1012,.T.);
#1082=FACE_BOUND('',#1013,.T.);
#1083=FACE_BOUND('',#1014,.T.);
#1084=FACE_BOUND('',#1015,.T.);
#1085=FACE_BOUND('',#1016,.T.);
#1086=FACE_BOUND('',#1017,.T.);
#1087=FACE_BOUND('',#1018,.T.);
#1088=FACE_BOUND('',#1019,.T.);
#1089=FACE_BOUND('',#1020,.T.);
#1090=FACE_BOUND('',#1021,.T.);
#1091=FACE_BOUND('',#1022,.T.);
#1092=FACE_BOUND('',#1023,.T.);
#1093=FACE_BOUND('',#1024,.T.);
#1094=FACE_BOUND('',#1025,.T.);
#1095=FACE_BOUND('',#1026,.T.);
#1096=FACE_BOUND('',#1027,.T.);
#1097=FACE_BOUND('',#1028,.T.);
#1098=FACE_BOUND('',#1029,.T.);
#1099=FACE_BOUND('',#1030,.T.);
#1100=FACE_BOUND('',#1031,.T.);
#1101=FACE_BOUND('',#1032,.T.);
#1102=FACE_BOUND('',#1033,.T.);
#1103=FACE_BOUND('',#1034,.T.);
#1104=FACE_BOUND('',#1035,.T.);
#1105=FACE_BOUND('',#1036,.T.);
#1106=FACE_BOUND('',#1037,.T.);
#1107=FACE_BOUND('',#1038,.T.);
#1108=FACE_BOUND('',#1039,.T.);
#1109=FACE_BOUND('',#1040,.T.);
#1110=FACE_BOUND('',#1041,.T.);
#1111=FACE_BOUND('',#1042,.T.);
#1112=FACE_BOUND('',#1043,.T.);
#1113=FACE_BOUND('',#1044,.T.);
#1114=FACE_BOUND('',#1045,.T.);
#1115=FACE_BOUND('',#1046,.T.);
#1116=FACE_BOUND('',#1047,.T.);
#1117=FACE_BOUND('',#1048,.T.);
#1118=FACE_BOUND('',#1049,.T.);
#1119=FACE_BOUND('',#1050,.T.);
#1120=FACE_BOUND('',#1051,.T.);
#1121=PLANE('',#1240);
#1122=PLANE('',#1241);
#1123=PLANE('',#1242);
#1124=PLANE('',#1243);
#1125=PLANE('',#1246);
#1126=PLANE('',#1247);
#1127=PLANE('',#1250);
#1128=PLANE('',#1251);
#1129=PLANE('',#1252);
#1130=PLANE('',#1255);
#1131=PLANE('',#1257);
#1132=PLANE('',#1258);
#1133=PLANE('',#1259);
#1134=PLANE('',#1262);
#1135=PLANE('',#1265);
#1136=PLANE('',#1266);
#1137=PLANE('',#1267);
#1138=PLANE('',#1270);
#1139=PLANE('',#1275);
#1140=PLANE('',#1276);
#1141=PLANE('',#1277);
#1142=PLANE('',#1278);
#1143=PLANE('',#1280);
#1144=PLANE('',#1283);
#1145=PLANE('',#1295);
#1146=PLANE('',#1296);
#1147=PLANE('',#1297);
#1148=PLANE('',#1302);
#1149=PLANE('',#1303);
#1150=PLANE('',#1304);
#1151=PLANE('',#1333);
#1152=PLANE('',#1334);
#1153=PLANE('',#1335);
#1154=PLANE('',#1336);
#1155=PLANE('',#1337);
#1156=PLANE('',#1338);
#1157=PLANE('',#1342);
#1158=PLANE('',#1346);
#1159=ADVANCED_FACE('',(#1052),#1121,.T.);
#1160=ADVANCED_FACE('',(#1053),#1122,.T.);
#1161=ADVANCED_FACE('',(#1054),#1123,.T.);
#1162=ADVANCED_FACE('',(#1055),#1124,.T.);
#1163=ADVANCED_FACE('',(#1056),#1125,.F.);
#1164=ADVANCED_FACE('',(#1057),#1126,.F.);
#1165=ADVANCED_FACE('',(#1058),#1127,.F.);
#1166=ADVANCED_FACE('',(#1059,#1060),#1128,.T.);
#1167=ADVANCED_FACE('',(#1061),#1129,.T.);
#1168=ADVANCED_FACE('',(#1062),#52,.F.);
#1169=ADVANCED_FACE('',(#1063),#1130,.F.);
#1170=ADVANCED_FACE('',(#1064),#1131,.F.);
#1171=ADVANCED_FACE('',(#1065),#1132,.T.);
#1172=ADVANCED_FACE('',(#1066),#1133,.F.);
#1173=ADVANCED_FACE('',(#1067),#1134,.T.);
#1174=ADVANCED_FACE('',(#1068),#1135,.F.);
#1175=ADVANCED_FACE('',(#1069),#1136,.F.);
#1176=ADVANCED_FACE('',(#1070),#1137,.F.);
#1177=ADVANCED_FACE('',(#1071),#53,.F.);
#1178=ADVANCED_FACE('',(#1072),#1138,.F.);
#1179=ADVANCED_FACE('',(#1073),#54,.T.);
#1180=ADVANCED_FACE('',(#1074),#1139,.F.);
#1181=ADVANCED_FACE('',(#1075),#1140,.F.);
#1182=ADVANCED_FACE('',(#1076),#1141,.F.);
#1183=ADVANCED_FACE('',(#1077),#1142,.T.);
#1184=ADVANCED_FACE('',(#1078),#1143,.F.);
#1185=ADVANCED_FACE('',(#1079),#1144,.F.);
#1186=ADVANCED_FACE('',(#1080),#55,.T.);
#1187=ADVANCED_FACE('',(#1081),#12,.T.);
#1188=ADVANCED_FACE('',(#1082),#56,.T.);
#1189=ADVANCED_FACE('',(#1083),#57,.T.);
#1190=ADVANCED_FACE('',(#1084),#13,.T.);
#1191=ADVANCED_FACE('',(#1085),#58,.T.);
#1192=ADVANCED_FACE('',(#1086),#1145,.T.);
#1193=ADVANCED_FACE('',(#1087),#1146,.F.);
#1194=ADVANCED_FACE('',(#1088),#1147,.T.);
#1195=ADVANCED_FACE('',(#1089),#1148,.F.);
#1196=ADVANCED_FACE('',(#1090),#1149,.T.);
#1197=ADVANCED_FACE('',(#1091),#1150,.T.);
#1198=ADVANCED_FACE('',(#1092),#59,.F.);
#1199=ADVANCED_FACE('',(#1093),#60,.F.);
#1200=ADVANCED_FACE('',(#1094),#61,.F.);
#1201=ADVANCED_FACE('',(#1095),#62,.F.);
#1202=ADVANCED_FACE('',(#1096),#63,.F.);
#1203=ADVANCED_FACE('',(#1097),#64,.F.);
#1204=ADVANCED_FACE('',(#1098),#65,.F.);
#1205=ADVANCED_FACE('',(#1099),#66,.F.);
#1206=ADVANCED_FACE('',(#1100),#67,.F.);
#1207=ADVANCED_FACE('',(#1101),#68,.F.);
#1208=ADVANCED_FACE('',(#1102),#69,.F.);
#1209=ADVANCED_FACE('',(#1103),#70,.F.);
#1210=ADVANCED_FACE('',(#1104),#1151,.F.);
#1211=ADVANCED_FACE('',(#1105),#1152,.F.);
#1212=ADVANCED_FACE('',(#1106),#1153,.F.);
#1213=ADVANCED_FACE('',(#1107),#1154,.T.);
#1214=ADVANCED_FACE('',(#1108),#1155,.F.);
#1215=ADVANCED_FACE('',(#1109),#1156,.F.);
#1216=ADVANCED_FACE('',(#1110),#1157,.F.);
#1217=ADVANCED_FACE('',(#1111),#1158,.T.);
#1218=ADVANCED_FACE('',(#1112),#71,.T.);
#1219=ADVANCED_FACE('',(#1113),#72,.F.);
#1220=ADVANCED_FACE('',(#1114),#73,.F.);
#1221=ADVANCED_FACE('',(#1115),#74,.F.);
#1222=ADVANCED_FACE('',(#1116),#75,.F.);
#1223=ADVANCED_FACE('',(#1117),#76,.F.);
#1224=ADVANCED_FACE('',(#1118),#77,.F.);
#1225=ADVANCED_FACE('',(#1119),#78,.F.);
#1226=ADVANCED_FACE('',(#1120),#79,.F.);
#1227=CLOSED_SHELL('',(#1159,#1160,#1161,#1162,#1163,#1164,#1165,#1166,
#1167,#1168,#1169,#1170,#1171,#1172,#1173,#1174,#1175,#1176,#1177,#1178,
#1179,#1180,#1181,#1182,#1183,#1184,#1185,#1186,#1187,#1188,#1189,#1190,
#1191,#1192,#1193,#1194,#1195,#1196,#1197,#1198,#1199,#1200,#1201,#1202,
#1203,#1204,#1205,#1206,#1207,#1208,#1209,#1210,#1211,#1212,#1213,#1214,
#1215,#1216,#1217,#1218,#1219,#1220,#1221,#1222,#1223,#1224,#1225,#1226));
#1228=STYLED_ITEM('',(#1229),#1236);
#1229=PRESENTATION_STYLE_ASSIGNMENT((#1230));
#1230=SURFACE_STYLE_USAGE(.BOTH.,#1231);
#1231=SURFACE_SIDE_STYLE('',(#1232));
#1232=SURFACE_STYLE_FILL_AREA(#1233);
#1233=FILL_AREA_STYLE('',(#1234));
#1234=FILL_AREA_STYLE_COLOUR('',#1235);
#1235=COLOUR_RGB('',0.647058823529412,0.647058823529412,0.647058823529412);
#1236=MANIFOLD_SOLID_BREP('Part 1',#1227);
#1237=SHAPE_DEFINITION_REPRESENTATION(#2099,#1238);
#1238=SHAPE_REPRESENTATION('Part 1',(#1239),#2094);
#1239=AXIS2_PLACEMENT_3D('',#1735,#1364,#1365);
#1240=AXIS2_PLACEMENT_3D('',#1736,#1366,#1367);
#1241=AXIS2_PLACEMENT_3D('',#1757,#1378,#1379);
#1242=AXIS2_PLACEMENT_3D('',#1776,#1390,#1391);
#1243=AXIS2_PLACEMENT_3D('',#1791,#1400,#1401);
#1244=AXIS2_PLACEMENT_3D('',#1798,#1405,#1406);
#1245=AXIS2_PLACEMENT_3D('',#1800,#1407,#1408);
#1246=AXIS2_PLACEMENT_3D('',#1801,#1409,#1410);
#1247=AXIS2_PLACEMENT_3D('',#1807,#1414,#1415);
#1248=AXIS2_PLACEMENT_3D('',#1811,#1417,#1418);
#1249=AXIS2_PLACEMENT_3D('',#1813,#1419,#1420);
#1250=AXIS2_PLACEMENT_3D('',#1820,#1425,#1426);
#1251=AXIS2_PLACEMENT_3D('',#1821,#1427,#1428);
#1252=AXIS2_PLACEMENT_3D('',#1843,#1440,#1441);
#1253=AXIS2_PLACEMENT_3D('',#1857,#1449,#1450);
#1254=AXIS2_PLACEMENT_3D('',#1860,#1452,#1453);
#1255=AXIS2_PLACEMENT_3D('',#1861,#1454,#1455);
#1256=AXIS2_PLACEMENT_3D('',#1862,#1456,#1457);
#1257=AXIS2_PLACEMENT_3D('',#1863,#1458,#1459);
#1258=AXIS2_PLACEMENT_3D('',#1871,#1464,#1465);
#1259=AXIS2_PLACEMENT_3D('',#1880,#1470,#1471);
#1260=AXIS2_PLACEMENT_3D('',#1881,#1472,#1473);
#1261=AXIS2_PLACEMENT_3D('',#1883,#1474,#1475);
#1262=AXIS2_PLACEMENT_3D('',#1888,#1478,#1479);
#1263=AXIS2_PLACEMENT_3D('',#1889,#1480,#1481);
#1264=AXIS2_PLACEMENT_3D('',#1892,#1482,#1483);
#1265=AXIS2_PLACEMENT_3D('',#1901,#1489,#1490);
#1266=AXIS2_PLACEMENT_3D('',#1904,#1493,#1494);
#1267=AXIS2_PLACEMENT_3D('',#1905,#1495,#1496);
#1268=AXIS2_PLACEMENT_3D('',#1911,#1500,#1501);
#1269=AXIS2_PLACEMENT_3D('',#1912,#1502,#1503);
#1270=AXIS2_PLACEMENT_3D('',#1915,#1505,#1506);
#1271=AXIS2_PLACEMENT_3D('',#1916,#1507,#1508);
#1272=AXIS2_PLACEMENT_3D('',#1917,#1509,#1510);
#1273=AXIS2_PLACEMENT_3D('',#1918,#1511,#1512);
#1274=AXIS2_PLACEMENT_3D('',#1919,#1513,#1514);
#1275=AXIS2_PLACEMENT_3D('',#1920,#1515,#1516);
#1276=AXIS2_PLACEMENT_3D('',#1922,#1518,#1519);
#1277=AXIS2_PLACEMENT_3D('',#1924,#1521,#1522);
#1278=AXIS2_PLACEMENT_3D('',#1925,#1523,#1524);
#1279=AXIS2_PLACEMENT_3D('',#1926,#1525,#1526);
#1280=AXIS2_PLACEMENT_3D('',#1929,#1528,#1529);
#1281=AXIS2_PLACEMENT_3D('',#1930,#1530,#1531);
#1282=AXIS2_PLACEMENT_3D('',#1931,#1532,#1533);
#1283=AXIS2_PLACEMENT_3D('',#1934,#1535,#1536);
#1284=AXIS2_PLACEMENT_3D('',#1935,#1537,#1538);
#1285=AXIS2_PLACEMENT_3D('',#1936,#1539,#1540);
#1286=AXIS2_PLACEMENT_3D('',#1937,#1541,#1542);
#1287=AXIS2_PLACEMENT_3D('',#1938,#1543,#1544);
#1288=AXIS2_PLACEMENT_3D('',#1939,#1545,#1546);
#1289=AXIS2_PLACEMENT_3D('',#1940,#1547,#1548);
#1290=AXIS2_PLACEMENT_3D('',#1941,#1549,#1550);
#1291=AXIS2_PLACEMENT_3D('',#1942,#1551,#1552);
#1292=AXIS2_PLACEMENT_3D('',#1943,#1553,#1554);
#1293=AXIS2_PLACEMENT_3D('',#1944,#1555,#1556);
#1294=AXIS2_PLACEMENT_3D('',#1945,#1557,#1558);
#1295=AXIS2_PLACEMENT_3D('',#1946,#1559,#1560);
#1296=AXIS2_PLACEMENT_3D('',#1953,#1564,#1565);
#1297=AXIS2_PLACEMENT_3D('',#1960,#1569,#1570);
#1298=AXIS2_PLACEMENT_3D('',#1961,#1571,#1572);
#1299=AXIS2_PLACEMENT_3D('',#1965,#1574,#1575);
#1300=AXIS2_PLACEMENT_3D('',#1966,#1576,#1577);
#1301=AXIS2_PLACEMENT_3D('',#1970,#1579,#1580);
#1302=AXIS2_PLACEMENT_3D('',#1971,#1581,#1582);
#1303=AXIS2_PLACEMENT_3D('',#1978,#1586,#1587);
#1304=AXIS2_PLACEMENT_3D('',#1985,#1591,#1592);
#1305=AXIS2_PLACEMENT_3D('',#1986,#1593,#1594);
#1306=AXIS2_PLACEMENT_3D('',#1990,#1596,#1597);
#1307=AXIS2_PLACEMENT_3D('',#1991,#1598,#1599);
#1308=AXIS2_PLACEMENT_3D('',#1995,#1601,#1602);
#1309=AXIS2_PLACEMENT_3D('',#1996,#1603,#1604);
#1310=AXIS2_PLACEMENT_3D('',#1997,#1605,#1606);
#1311=AXIS2_PLACEMENT_3D('',#1998,#1607,#1608);
#1312=AXIS2_PLACEMENT_3D('',#1999,#1609,#1610);
#1313=AXIS2_PLACEMENT_3D('',#2000,#1611,#1612);
#1314=AXIS2_PLACEMENT_3D('',#2001,#1613,#1614);
#1315=AXIS2_PLACEMENT_3D('',#2002,#1615,#1616);
#1316=AXIS2_PLACEMENT_3D('',#2003,#1617,#1618);
#1317=AXIS2_PLACEMENT_3D('',#2004,#1619,#1620);
#1318=AXIS2_PLACEMENT_3D('',#2005,#1621,#1622);
#1319=AXIS2_PLACEMENT_3D('',#2006,#1623,#1624);
#1320=AXIS2_PLACEMENT_3D('',#2007,#1625,#1626);
#1321=AXIS2_PLACEMENT_3D('',#2008,#1627,#1628);
#1322=AXIS2_PLACEMENT_3D('',#2009,#1629,#1630);
#1323=AXIS2_PLACEMENT_3D('',#2010,#1631,#1632);
#1324=AXIS2_PLACEMENT_3D('',#2011,#1633,#1634);
#1325=AXIS2_PLACEMENT_3D('',#2012,#1635,#1636);
#1326=AXIS2_PLACEMENT_3D('',#2013,#1637,#1638);
#1327=AXIS2_PLACEMENT_3D('',#2014,#1639,#1640);
#1328=AXIS2_PLACEMENT_3D('',#2015,#1641,#1642);
#1329=AXIS2_PLACEMENT_3D('',#2016,#1643,#1644);
#1330=AXIS2_PLACEMENT_3D('',#2017,#1645,#1646);
#1331=AXIS2_PLACEMENT_3D('',#2018,#1647,#1648);
#1332=AXIS2_PLACEMENT_3D('',#2019,#1649,#1650);
#1333=AXIS2_PLACEMENT_3D('',#2020,#1651,#1652);
#1334=AXIS2_PLACEMENT_3D('',#2026,#1656,#1657);
#1335=AXIS2_PLACEMENT_3D('',#2032,#1661,#1662);
#1336=AXIS2_PLACEMENT_3D('',#2035,#1665,#1666);
#1337=AXIS2_PLACEMENT_3D('',#2036,#1667,#1668);
#1338=AXIS2_PLACEMENT_3D('',#2053,#1677,#1678);
#1339=AXIS2_PLACEMENT_3D('',#2054,#1679,#1680);
#1340=AXIS2_PLACEMENT_3D('',#2058,#1682,#1683);
#1341=AXIS2_PLACEMENT_3D('',#2062,#1685,#1686);
#1342=AXIS2_PLACEMENT_3D('',#2063,#1687,#1688);
#1343=AXIS2_PLACEMENT_3D('',#2067,#1690,#1691);
#1344=AXIS2_PLACEMENT_3D('',#2068,#1692,#1693);
#1345=AXIS2_PLACEMENT_3D('',#2072,#1695,#1696);
#1346=AXIS2_PLACEMENT_3D('',#2073,#1697,#1698);
#1347=AXIS2_PLACEMENT_3D('',#2076,#1701,#1702);
#1348=AXIS2_PLACEMENT_3D('',#2077,#1703,#1704);
#1349=AXIS2_PLACEMENT_3D('',#2078,#1705,#1706);
#1350=AXIS2_PLACEMENT_3D('',#2079,#1707,#1708);
#1351=AXIS2_PLACEMENT_3D('',#2080,#1709,#1710);
#1352=AXIS2_PLACEMENT_3D('',#2081,#1711,#1712);
#1353=AXIS2_PLACEMENT_3D('',#2082,#1713,#1714);
#1354=AXIS2_PLACEMENT_3D('',#2083,#1715,#1716);
#1355=AXIS2_PLACEMENT_3D('',#2084,#1717,#1718);
#1356=AXIS2_PLACEMENT_3D('',#2085,#1719,#1720);
#1357=AXIS2_PLACEMENT_3D('',#2086,#1721,#1722);
#1358=AXIS2_PLACEMENT_3D('',#2087,#1723,#1724);
#1359=AXIS2_PLACEMENT_3D('',#2088,#1725,#1726);
#1360=AXIS2_PLACEMENT_3D('',#2089,#1727,#1728);
#1361=AXIS2_PLACEMENT_3D('',#2090,#1729,#1730);
#1362=AXIS2_PLACEMENT_3D('',#2091,#1731,#1732);
#1363=AXIS2_PLACEMENT_3D('',#2092,#1733,#1734);
#1364=DIRECTION('',(0.,0.,1.));
#1365=DIRECTION('',(1.,0.,0.));
#1366=DIRECTION('',(-1.,0.,0.));
#1367=DIRECTION('',(0.,0.,1.));
#1368=DIRECTION('',(0.,0.,1.));
#1369=DIRECTION('',(0.,-1.,0.));
#1370=DIRECTION('',(0.,0.,1.));
#1371=DIRECTION('',(0.,1.,0.));
#1372=DIRECTION('',(0.,0.,-1.));
#1373=DIRECTION('',(0.,1.,0.));
#1374=DIRECTION('',(0.,0.,-1.));
#1375=DIRECTION('',(0.,1.,0.));
#1376=DIRECTION('',(0.,0.,1.));
#1377=DIRECTION('',(0.,-1.,0.));
#1378=DIRECTION('',(4.62592926927149E-16,1.,0.));
#1379=DIRECTION('',(-1.,4.62592926927149E-16,0.));
#1380=DIRECTION('',(-1.,4.62592926927149E-16,0.));
#1381=DIRECTION('',(0.,0.,-1.));
#1382=DIRECTION('',(-1.,4.62592926927149E-16,0.));
#1383=DIRECTION('',(-1.,4.62592926927149E-16,0.));
#1384=DIRECTION('',(0.,0.,-1.));
#1385=DIRECTION('',(1.,-4.62592926927149E-16,0.));
#1386=DIRECTION('',(0.,0.,1.));
#1387=DIRECTION('',(1.,-4.62592926927149E-16,0.));
#1388=DIRECTION('',(0.,0.,-1.));
#1389=DIRECTION('',(1.,-4.62592926927149E-16,0.));
#1390=DIRECTION('',(1.,-4.62592926927149E-16,0.));
#1391=DIRECTION('',(4.62592926927149E-16,1.,0.));
#1392=DIRECTION('',(0.,0.,-1.));
#1393=DIRECTION('',(-4.62592926927149E-16,-1.,0.));
#1394=DIRECTION('',(0.,1.,0.));
#1395=DIRECTION('',(0.,0.,-1.));
#1396=DIRECTION('',(-4.62592926927149E-16,-1.,0.));
#1397=DIRECTION('',(0.,0.,-1.));
#1398=DIRECTION('',(-4.62592926927149E-16,-1.,0.));
#1399=DIRECTION('',(-4.62592926927149E-16,-1.,0.));
#1400=DIRECTION('',(0.,-1.,0.));
#1401=DIRECTION('',(0.,0.,-1.));
#1402=DIRECTION('',(1.,0.,0.));
#1403=DIRECTION('',(-1.,0.,0.));
#1404=DIRECTION('',(0.,0.,-1.));
#1405=DIRECTION('',(0.,-1.,0.));
#1406=DIRECTION('',(0.,0.,-1.));
#1407=DIRECTION('',(0.,-1.,0.));
#1408=DIRECTION('',(0.,0.,-1.));
#1409=DIRECTION('',(-1.,0.,0.));
#1410=DIRECTION('',(0.,0.,1.));
#1411=DIRECTION('',(0.,0.,-1.));
#1412=DIRECTION('',(0.,1.,0.));
#1413=DIRECTION('',(0.,1.,0.));
#1414=DIRECTION('',(0.,-1.,0.));
#1415=DIRECTION('',(0.,0.,-1.));
#1416=DIRECTION('',(0.,0.,-1.));
#1417=DIRECTION('',(0.,-1.,0.));
#1418=DIRECTION('',(0.,0.,-1.));
#1419=DIRECTION('',(0.,-1.,0.));
#1420=DIRECTION('',(0.,0.,-1.));
#1421=DIRECTION('',(-1.,0.,0.));
#1422=DIRECTION('',(-0.707106781186548,0.,-0.707106781186548));
#1423=DIRECTION('',(1.,0.,0.));
#1424=DIRECTION('',(-0.707106781186548,0.,0.707106781186548));
#1425=DIRECTION('',(0.,0.,1.));
#1426=DIRECTION('',(1.,0.,0.));
#1427=DIRECTION('',(1.,0.,0.));
#1428=DIRECTION('',(0.,0.,-1.));
#1429=DIRECTION('',(0.,-1.,0.));
#1430=DIRECTION('',(0.,0.,-1.));
#1431=DIRECTION('',(0.,-1.,0.));
#1432=DIRECTION('',(0.,0.,1.));
#1433=DIRECTION('',(0.,-1.,0.));
#1434=DIRECTION('',(0.,0.,-1.));
#1435=DIRECTION('',(0.,-1.,0.));
#1436=DIRECTION('',(0.,0.,-1.));
#1437=DIRECTION('',(0.,0.,1.));
#1438=DIRECTION('',(0.,1.,0.));
#1439=DIRECTION('',(0.,-1.,0.));
#1440=DIRECTION('',(0.,0.,1.));
#1441=DIRECTION('',(1.,0.,0.));
#1442=DIRECTION('',(-1.,4.62592926927149E-16,0.));
#1443=DIRECTION('',(4.62592926927149E-16,1.,0.));
#1444=DIRECTION('',(1.,0.,0.));
#1445=DIRECTION('',(0.,-1.,0.));
#1446=DIRECTION('',(1.,0.,0.));
#1447=DIRECTION('',(0.,1.,0.));
#1448=DIRECTION('',(0.,-1.,0.));
#1449=DIRECTION('',(0.,-1.,0.));
#1450=DIRECTION('',(0.,0.,-1.));
#1451=DIRECTION('',(0.,-1.,0.));
#1452=DIRECTION('',(0.,-1.,0.));
#1453=DIRECTION('',(0.,0.,-1.));
#1454=DIRECTION('',(0.,-1.,0.));
#1455=DIRECTION('',(1.,0.,0.));
#1456=DIRECTION('',(0.,-1.,0.));
#1457=DIRECTION('',(0.,0.,-1.));
#1458=DIRECTION('',(0.,0.,1.));
#1459=DIRECTION('',(1.,0.,0.));
#1460=DIRECTION('',(1.,0.,0.));
#1461=DIRECTION('',(0.,1.,0.));
#1462=DIRECTION('',(1.,0.,0.));
#1463=DIRECTION('',(0.,1.,0.));
#1464=DIRECTION('',(0.,-1.,0.));
#1465=DIRECTION('',(1.,0.,0.));
#1466=DIRECTION('',(-1.,0.,0.));
#1467=DIRECTION('',(0.,0.,-1.));
#1468=DIRECTION('',(1.,0.,0.));
#1469=DIRECTION('',(0.,0.,1.));
#1470=DIRECTION('',(0.,1.,0.));
#1471=DIRECTION('',(0.,0.,1.));
#1472=DIRECTION('',(0.,1.,0.));
#1473=DIRECTION('',(0.,0.,1.));
#1474=DIRECTION('',(0.,1.,0.));
#1475=DIRECTION('',(0.,0.,1.));
#1476=DIRECTION('',(0.,0.,-1.));
#1477=DIRECTION('',(1.,0.,0.));
#1478=DIRECTION('',(0.,1.,0.));
#1479=DIRECTION('',(0.,0.,1.));
#1480=DIRECTION('',(0.,1.,0.));
#1481=DIRECTION('',(0.,0.,1.));
#1482=DIRECTION('',(0.,1.,0.));
#1483=DIRECTION('',(0.,0.,1.));
#1484=DIRECTION('',(0.,0.,-1.));
#1485=DIRECTION('',(0.707106781186548,0.,0.707106781186548));
#1486=DIRECTION('',(-0.707106781186548,0.,0.707106781186548));
#1487=DIRECTION('',(1.,0.,0.));
#1488=DIRECTION('',(0.,0.,-1.));
#1489=DIRECTION('',(1.,-4.62592926927149E-16,0.));
#1490=DIRECTION('',(4.62592926927149E-16,1.,0.));
#1491=DIRECTION('',(-4.62592926927149E-16,-1.,0.));
#1492=DIRECTION('',(-4.62592926927149E-16,-1.,0.));
#1493=DIRECTION('',(0.,0.,1.));
#1494=DIRECTION('',(1.,0.,0.));
#1495=DIRECTION('',(1.,0.,0.));
#1496=DIRECTION('',(0.,0.,-1.));
#1497=DIRECTION('',(0.,1.,0.));
#1498=DIRECTION('',(0.,0.,-1.));
#1499=DIRECTION('',(0.,1.,0.));
#1500=DIRECTION('',(4.62592926927149E-16,1.,0.));
#1501=DIRECTION('',(-1.,4.62592926927149E-16,0.));
#1502=DIRECTION('',(0.,1.,0.));
#1503=DIRECTION('',(0.,0.,1.));
#1504=DIRECTION('',(4.62592926927149E-16,1.,0.));
#1505=DIRECTION('',(0.,-1.,0.));
#1506=DIRECTION('',(1.,0.,0.));
#1507=DIRECTION('',(0.,-1.,0.));
#1508=DIRECTION('',(0.,0.,-1.));
#1509=DIRECTION('',(-1.,0.,0.));
#1510=DIRECTION('',(0.,0.,1.));
#1511=DIRECTION('',(-1.,0.,0.));
#1512=DIRECTION('',(0.,0.,1.));
#1513=DIRECTION('',(-1.,0.,0.));
#1514=DIRECTION('',(0.,0.,1.));
#1515=DIRECTION('',(0.707106781186548,0.,-0.707106781186548));
#1516=DIRECTION('',(0.,1.,0.));
#1517=DIRECTION('',(0.577350269189625,-0.577350269189627,0.577350269189625));
#1518=DIRECTION('',(-3.2710259555912E-16,-0.707106781186546,-0.707106781186549));
#1519=DIRECTION('',(-1.,4.62592926927149E-16,0.));
#1520=DIRECTION('',(-0.577350269189625,-0.577350269189627,0.577350269189625));
#1521=DIRECTION('',(-0.707106781186548,3.2710259555912E-16,-0.707106781186548));
#1522=DIRECTION('',(-4.62592926927149E-16,-1.,0.));
#1523=DIRECTION('',(-0.707106781186548,0.,0.707106781186548));
#1524=DIRECTION('',(0.,1.,0.));
#1525=DIRECTION('',(-0.707106781186548,0.,0.707106781186548));
#1526=DIRECTION('',(0.707106781186548,0.,0.707106781186548));
#1527=DIRECTION('',(-0.577350269189626,-0.577350269189626,-0.577350269189626));
#1528=DIRECTION('',(0.,0.707106781186548,-0.707106781186548));
#1529=DIRECTION('',(-1.,0.,0.));
#1530=DIRECTION('',(0.,0.707106781186548,-0.707106781186548));
#1531=DIRECTION('',(0.,0.707106781186548,0.707106781186548));
#1532=DIRECTION('',(0.,0.707106781186548,-0.707106781186548));
#1533=DIRECTION('',(0.,0.707106781186548,0.707106781186548));
#1534=DIRECTION('',(-0.577350269189626,0.577350269189626,0.577350269189626));
#1535=DIRECTION('',(-0.707106781186548,0.,-0.707106781186548));
#1536=DIRECTION('',(0.,-1.,0.));
#1537=DIRECTION('',(-0.707106781186548,0.,-0.707106781186548));
#1538=DIRECTION('',(-0.707106781186548,0.,0.707106781186548));
#1539=DIRECTION('',(0.,1.,0.));
#1540=DIRECTION('',(0.,0.,1.));
#1541=DIRECTION('',(0.,-1.,0.));
#1542=DIRECTION('',(0.,0.,-1.));
#1543=DIRECTION('',(1.,0.,0.));
#1544=DIRECTION('',(0.,0.,-1.));
#1545=DIRECTION('',(0.,0.,1.));
#1546=DIRECTION('',(1.,0.,0.));
#1547=DIRECTION('',(0.,0.,1.));
#1548=DIRECTION('',(1.,0.,0.));
#1549=DIRECTION('',(0.,0.,1.));
#1550=DIRECTION('',(1.,0.,0.));
#1551=DIRECTION('',(0.,0.,-1.));
#1552=DIRECTION('',(-1.,0.,0.));
#1553=DIRECTION('',(1.,0.,0.));
#1554=DIRECTION('',(0.,0.,-1.));
#1555=DIRECTION('',(0.,1.,0.));
#1556=DIRECTION('',(0.,0.,1.));
#1557=DIRECTION('',(0.,-1.,0.));
#1558=DIRECTION('',(0.,0.,-1.));
#1559=DIRECTION('',(0.,0.,-1.));
#1560=DIRECTION('',(-1.,0.,0.));
#1561=DIRECTION('',(0.554700196225229,-0.832050294337844,0.));
#1562=DIRECTION('',(1.,-4.62592926927149E-16,0.));
#1563=DIRECTION('',(-4.62592926927149E-16,-1.,0.));
#1564=DIRECTION('',(0.,0.,-1.));
#1565=DIRECTION('',(-1.,0.,0.));
#1566=DIRECTION('',(0.554700196225229,-0.832050294337844,0.));
#1567=DIRECTION('',(-4.62592926927149E-16,-1.,0.));
#1568=DIRECTION('',(1.,-4.62592926927149E-16,0.));
#1569=DIRECTION('',(0.832050294337844,0.554700196225229,0.));
#1570=DIRECTION('',(0.554700196225229,-0.832050294337844,0.));
#1571=DIRECTION('',(0.832050294337844,0.554700196225229,0.));
#1572=DIRECTION('',(-0.554700196225229,0.832050294337844,0.));
#1573=DIRECTION('',(0.,0.,-1.));
#1574=DIRECTION('',(0.832050294337844,0.554700196225229,0.));
#1575=DIRECTION('',(0.554700196225229,-0.832050294337844,0.));
#1576=DIRECTION('',(0.832050294337844,0.554700196225229,0.));
#1577=DIRECTION('',(0.554700196225229,-0.832050294337844,0.));
#1578=DIRECTION('',(0.,0.,1.));
#1579=DIRECTION('',(0.832050294337844,0.554700196225229,0.));
#1580=DIRECTION('',(-0.554700196225229,0.832050294337844,0.));
#1581=DIRECTION('',(0.,0.,1.));
#1582=DIRECTION('',(1.,0.,0.));
#1583=DIRECTION('',(-0.554700196225229,-0.832050294337844,0.));
#1584=DIRECTION('',(0.,-1.,0.));
#1585=DIRECTION('',(-1.,4.62592926927149E-16,0.));
#1586=DIRECTION('',(0.,0.,1.));
#1587=DIRECTION('',(1.,0.,0.));
#1588=DIRECTION('',(-1.,4.62592926927149E-16,0.));
#1589=DIRECTION('',(0.,-1.,0.));
#1590=DIRECTION('',(-0.554700196225229,-0.832050294337844,0.));
#1591=DIRECTION('',(-0.832050294337844,0.554700196225229,0.));
#1592=DIRECTION('',(-0.554700196225229,-0.832050294337844,0.));
#1593=DIRECTION('',(-0.832050294337844,0.554700196225229,0.));
#1594=DIRECTION('',(0.554700196225229,0.832050294337844,0.));
#1595=DIRECTION('',(0.,0.,1.));
#1596=DIRECTION('',(-0.832050294337844,0.554700196225229,0.));
#1597=DIRECTION('',(-0.554700196225229,-0.832050294337844,0.));
#1598=DIRECTION('',(-0.832050294337844,0.554700196225229,0.));
#1599=DIRECTION('',(-0.554700196225229,-0.832050294337844,0.));
#1600=DIRECTION('',(0.,0.,-1.));
#1601=DIRECTION('',(-0.832050294337844,0.554700196225229,0.));
#1602=DIRECTION('',(0.554700196225229,0.832050294337844,0.));
#1603=DIRECTION('',(0.,0.,-1.));
#1604=DIRECTION('',(-1.,0.,0.));
#1605=DIRECTION('',(0.707106781186548,-3.2710259555912E-16,-0.707106781186548));
#1606=DIRECTION('',(0.707106781186548,-3.2710259555912E-16,0.707106781186548));
#1607=DIRECTION('',(-0.707106781186548,3.2710259555912E-16,-0.707106781186548));
#1608=DIRECTION('',(-0.707106781186548,3.2710259555912E-16,0.707106781186548));
#1609=DIRECTION('',(1.,-4.62592926927149E-16,0.));
#1610=DIRECTION('',(4.62592926927149E-16,1.,0.));
#1611=DIRECTION('',(0.707106781186547,-0.707106781186548,0.));
#1612=DIRECTION('',(-0.707106781186548,-0.707106781186547,0.));
#1613=DIRECTION('',(-1.,4.62592926927149E-16,0.));
#1614=DIRECTION('',(-4.62592926927149E-16,-1.,0.));
#1615=DIRECTION('',(-0.707106781186547,0.707106781186548,0.));
#1616=DIRECTION('',(-0.707106781186548,-0.707106781186547,0.));
#1617=DIRECTION('',(-4.62592926927149E-16,-1.,0.));
#1618=DIRECTION('',(1.,-4.62592926927149E-16,0.));
#1619=DIRECTION('',(-3.2710259555912E-16,-0.707106781186548,0.707106781186548));
#1620=DIRECTION('',(-3.2710259555912E-16,-0.707106781186548,-0.707106781186548));
#1621=DIRECTION('',(4.62592926927149E-16,1.,0.));
#1622=DIRECTION('',(-1.,4.62592926927149E-16,0.));
#1623=DIRECTION('',(3.2710259555912E-16,0.707106781186548,0.707106781186548));
#1624=DIRECTION('',(3.2710259555912E-16,0.707106781186548,-0.707106781186548));
#1625=DIRECTION('',(0.,0.,1.));
#1626=DIRECTION('',(1.,0.,0.));
#1627=DIRECTION('',(0.,0.,1.));
#1628=DIRECTION('',(1.,0.,0.));
#1629=DIRECTION('',(-0.707106781186548,3.2710259555912E-16,0.707106781186548));
#1630=DIRECTION('',(-0.707106781186548,3.2710259555912E-16,-0.707106781186548));
#1631=DIRECTION('',(0.707106781186548,-3.2710259555912E-16,0.707106781186548));
#1632=DIRECTION('',(0.707106781186548,-3.2710259555912E-16,-0.707106781186548));
#1633=DIRECTION('',(-1.,4.62592926927149E-16,0.));
#1634=DIRECTION('',(-4.62592926927149E-16,-1.,0.));
#1635=DIRECTION('',(-0.707106781186548,-0.707106781186547,0.));
#1636=DIRECTION('',(0.707106781186547,-0.707106781186548,0.));
#1637=DIRECTION('',(1.,-4.62592926927149E-16,0.));
#1638=DIRECTION('',(4.62592926927149E-16,1.,0.));
#1639=DIRECTION('',(0.707106781186548,0.707106781186547,0.));
#1640=DIRECTION('',(-0.707106781186547,0.707106781186548,0.));
#1641=DIRECTION('',(0.,-1.,0.));
#1642=DIRECTION('',(0.,0.,-1.));
#1643=DIRECTION('',(0.,-0.707106781186548,-0.707106781186548));
#1644=DIRECTION('',(0.,-0.707106781186548,0.707106781186548));
#1645=DIRECTION('',(0.,1.,0.));
#1646=DIRECTION('',(0.,0.,1.));
#1647=DIRECTION('',(0.,0.707106781186548,-0.707106781186548));
#1648=DIRECTION('',(0.,0.707106781186548,0.707106781186548));
#1649=DIRECTION('',(0.,0.,-1.));
#1650=DIRECTION('',(-1.,0.,0.));
#1651=DIRECTION('',(-0.424844613350301,0.,-0.90526628928025));
#1652=DIRECTION('',(-0.90526628928025,0.,0.424844613350301));
#1653=DIRECTION('',(0.,-1.,0.));
#1654=DIRECTION('',(0.90526628928025,0.,-0.424844613350301));
#1655=DIRECTION('',(0.90526628928025,0.,-0.424844613350301));
#1656=DIRECTION('',(-0.413254670985995,0.,0.910615493448391));
#1657=DIRECTION('',(0.910615493448391,0.,0.413254670985995));
#1658=DIRECTION('',(-0.910615493448391,0.,-0.413254670985995));
#1659=DIRECTION('',(0.,-1.,0.));
#1660=DIRECTION('',(-0.910615493448391,0.,-0.413254670985995));
#1661=DIRECTION('',(-0.999979632198921,0.,0.00638241234253164));
#1662=DIRECTION('',(0.00638241234253164,0.,0.999979632198921));
#1663=DIRECTION('',(-0.00638241234253164,0.,-0.999979632198921));
#1664=DIRECTION('',(-0.00638241234253164,0.,-0.999979632198921));
#1665=DIRECTION('',(0.,-1.,0.));
#1666=DIRECTION('',(1.,0.,0.));
#1667=DIRECTION('',(0.,1.,0.));
#1668=DIRECTION('',(-1.,0.,0.));
#1669=DIRECTION('',(-0.910615493448391,0.,-0.413254670985995));
#1670=DIRECTION('',(0.,0.,-1.));
#1671=DIRECTION('',(-0.910615493448391,0.,-0.413254670985995));
#1672=DIRECTION('',(-0.00638241234253027,0.,-0.999979632198921));
#1673=DIRECTION('',(0.90526628928025,0.,-0.424844613350301));
#1674=DIRECTION('',(0.,0.,-1.));
#1675=DIRECTION('',(0.90526628928025,0.,-0.424844613350301));
#1676=DIRECTION('',(-0.00638241234253164,0.,-0.999979632198921));
#1677=DIRECTION('',(-0.424844613350301,0.,-0.90526628928025));
#1678=DIRECTION('',(-0.90526628928025,0.,0.424844613350301));
#1679=DIRECTION('',(-0.424844613350301,0.,-0.90526628928025));
#1680=DIRECTION('',(-0.90526628928025,0.,0.424844613350301));
#1681=DIRECTION('',(0.90526628928025,0.,-0.424844613350301));
#1682=DIRECTION('',(-0.424844613350301,0.,-0.90526628928025));
#1683=DIRECTION('',(-0.90526628928025,0.,0.424844613350301));
#1684=DIRECTION('',(0.,-1.,0.));
#1685=DIRECTION('',(-0.424844613350301,0.,-0.90526628928025));
#1686=DIRECTION('',(0.90526628928025,0.,-0.424844613350301));
#1687=DIRECTION('',(-0.413254670985995,0.,0.910615493448391));
#1688=DIRECTION('',(0.910615493448391,0.,0.413254670985995));
#1689=DIRECTION('',(-0.910615493448391,0.,-0.413254670985995));
#1690=DIRECTION('',(-0.413254670985995,0.,0.910615493448391));
#1691=DIRECTION('',(0.910615493448391,0.,0.413254670985995));
#1692=DIRECTION('',(-0.413254670985995,0.,0.910615493448391));
#1693=DIRECTION('',(-0.910615493448391,0.,-0.413254670985995));
#1694=DIRECTION('',(0.,-1.,0.));
#1695=DIRECTION('',(-0.413254670985995,0.,0.910615493448391));
#1696=DIRECTION('',(0.910615493448391,0.,0.413254670985995));
#1697=DIRECTION('',(0.,1.,0.));
#1698=DIRECTION('',(-1.,0.,0.));
#1699=DIRECTION('',(-0.00638241234253028,0.,-0.999979632198921));
#1700=DIRECTION('',(0.,0.,-1.));
#1701=DIRECTION('',(0.00638241234253028,0.,0.999979632198921));
#1702=DIRECTION('',(0.999979632198921,0.,-0.00638241234253027));
#1703=DIRECTION('',(-0.90526628928025,0.,0.424844613350301));
#1704=DIRECTION('',(0.424844613350301,0.,0.90526628928025));
#1705=DIRECTION('',(-0.53356642372918,0.,0.845758163702162));
#1706=DIRECTION('',(-0.845758163702162,0.,-0.53356642372918));
#1707=DIRECTION('',(0.536262709243193,0.,-0.844051127998269));
#1708=DIRECTION('',(-0.844051127998269,0.,-0.536262709243193));
#1709=DIRECTION('',(0.,0.,-1.));
#1710=DIRECTION('',(-1.,0.,0.));
#1711=DIRECTION('',(0.,-0.707106781186548,-0.707106781186548));
#1712=DIRECTION('',(0.,-0.707106781186548,0.707106781186548));
#1713=DIRECTION('',(0.00638241234253164,0.,0.999979632198921));
#1714=DIRECTION('',(0.999979632198921,0.,-0.00638241234253164));
#1715=DIRECTION('',(0.544318688668515,0.,0.838878516333675));
#1716=DIRECTION('',(-0.838878516333675,0.,0.544318688668515));
#1717=DIRECTION('',(0.,-1.,0.));
#1718=DIRECTION('',(0.,0.,-1.));
#1719=DIRECTION('',(0.,-0.707106781186548,0.707106781186548));
#1720=DIRECTION('',(0.,0.707106781186548,0.707106781186548));
#1721=DIRECTION('',(0.910615493448391,0.,0.413254670985995));
#1722=DIRECTION('',(0.413254670985995,0.,-0.910615493448391));
#1723=DIRECTION('',(-0.541638869088069,0.,-0.840611286798481));
#1724=DIRECTION('',(0.840611286798481,0.,-0.541638869088069));
#1725=DIRECTION('',(0.,0.,1.));
#1726=DIRECTION('',(1.,0.,0.));
#1727=DIRECTION('',(0.,0.707106781186548,0.707106781186548));
#1728=DIRECTION('',(0.,-0.707106781186548,0.707106781186548));
#1729=DIRECTION('',(0.,0.,-1.));
#1730=DIRECTION('',(-1.,0.,0.));
#1731=DIRECTION('',(0.,0.707106781186548,-0.707106781186548));
#1732=DIRECTION('',(0.,-0.707106781186548,-0.707106781186548));
#1733=DIRECTION('',(0.,-1.,0.));
#1734=DIRECTION('',(0.,0.,-1.));
#1735=CARTESIAN_POINT('',(0.,0.,0.));
#1736=CARTESIAN_POINT('',(0.097675,0.,0.01));
#1737=CARTESIAN_POINT('',(0.097675,-0.0705972243622681,0.0165));
#1738=CARTESIAN_POINT('',(0.097675,-0.0705972243622681,0.0125));
#1739=CARTESIAN_POINT('',(0.097675,-0.0705972243622681,0.0175));
#1740=CARTESIAN_POINT('',(0.097675,-0.1009,0.0175));
#1741=CARTESIAN_POINT('',(0.097675,-0.1009,0.0175));
#1742=CARTESIAN_POINT('',(0.097675,-0.1009,0.01875));
#1743=CARTESIAN_POINT('',(0.097675,-0.1009,0.029));
#1744=CARTESIAN_POINT('',(0.097675,0.,0.029));
#1745=CARTESIAN_POINT('',(0.097675,0.015,0.029));
#1746=CARTESIAN_POINT('',(0.097675,0.015,0.01));
#1747=CARTESIAN_POINT('',(0.097675,0.015,0.));
#1748=CARTESIAN_POINT('',(0.097675,0.,0.));
#1749=CARTESIAN_POINT('',(0.097675,-0.015,0.));
#1750=CARTESIAN_POINT('',(0.097675,-0.015,0.01));
#1751=CARTESIAN_POINT('',(0.097675,-0.015,0.0075));
#1752=CARTESIAN_POINT('',(0.097675,-0.1039,0.0075));
#1753=CARTESIAN_POINT('',(0.097675,-0.1009,0.0075));
#1754=CARTESIAN_POINT('',(0.097675,-0.1009,0.01875));
#1755=CARTESIAN_POINT('',(0.097675,-0.1009,0.0125));
#1756=CARTESIAN_POINT('',(0.097675,0.,0.0125));
#1757=CARTESIAN_POINT('',(0.097677,-0.1009,0.01875));
#1758=CARTESIAN_POINT('',(0.077675,-0.1009,0.0175));
#1759=CARTESIAN_POINT('',(0.077139816241512,-0.1009,0.0175));
#1760=CARTESIAN_POINT('',(0.077139816241512,-0.1009,0.0135));
#1761=CARTESIAN_POINT('',(0.077139816241512,-0.1009,0.0125));
#1762=CARTESIAN_POINT('',(0.097677,-0.1009,0.0125));
#1763=CARTESIAN_POINT('',(0.097677,-0.1009,0.0075));
#1764=CARTESIAN_POINT('',(-0.097675,-0.1009,0.0075));
#1765=CARTESIAN_POINT('',(-0.097675,-0.1009,0.01875));
#1766=CARTESIAN_POINT('',(-0.097675,-0.1009,0.0125));
#1767=CARTESIAN_POINT('',(-0.077675,-0.1009,0.0125));
#1768=CARTESIAN_POINT('',(-0.0771398162415121,-0.1009,0.0125));
#1769=CARTESIAN_POINT('',(-0.0771398162415121,-0.1009,0.0165));
#1770=CARTESIAN_POINT('',(-0.0771398162415121,-0.1009,0.0175));
#1771=CARTESIAN_POINT('',(0.097677,-0.1009,0.0175));
#1772=CARTESIAN_POINT('',(-0.097675,-0.1009,0.0175));
#1773=CARTESIAN_POINT('',(-0.097675,-0.1009,0.01875));
#1774=CARTESIAN_POINT('',(-0.097675,-0.1009,0.029));
#1775=CARTESIAN_POINT('',(0.097677,-0.1009,0.029));
#1776=CARTESIAN_POINT('',(-0.097675,0.,0.01));
#1777=CARTESIAN_POINT('',(-0.097675,-0.070597224362268,0.0135));
#1778=CARTESIAN_POINT('',(-0.097675,-0.070597224362268,0.0175));
#1779=CARTESIAN_POINT('',(-0.097675,-0.070597224362268,0.0125));
#1780=CARTESIAN_POINT('',(-0.097675,-0.1009,0.0125));
#1781=CARTESIAN_POINT('',(-0.097675,-0.1039,0.0075));
#1782=CARTESIAN_POINT('',(-0.097675,-0.015,0.0075));
#1783=CARTESIAN_POINT('',(-0.097675,-0.015,0.01));
#1784=CARTESIAN_POINT('',(-0.097675,-0.015,0.));
#1785=CARTESIAN_POINT('',(-0.097675,0.,0.));
#1786=CARTESIAN_POINT('',(-0.097675,0.015,0.));
#1787=CARTESIAN_POINT('',(-0.097675,0.015,0.01));
#1788=CARTESIAN_POINT('',(-0.097675,0.015,0.029));
#1789=CARTESIAN_POINT('',(-0.097675,0.,0.029));
#1790=CARTESIAN_POINT('',(-0.097675,0.,0.0175));
#1791=CARTESIAN_POINT('',(0.098425,-0.015,0.01));
#1792=CARTESIAN_POINT('',(0.098425,-0.015,0.0075));
#1793=CARTESIAN_POINT('',(0.098175,-0.015,0.0075));
#1794=CARTESIAN_POINT('',(0.098425,-0.015,0.));
#1795=CARTESIAN_POINT('',(0.099175,-0.015,0.));
#1796=CARTESIAN_POINT('',(0.099175,-0.015,0.01));
#1797=CARTESIAN_POINT('',(0.099175,-0.015,0.0075));
#1798=CARTESIAN_POINT('',(0.101675,-0.015,0.0075));
#1799=CARTESIAN_POINT('',(0.0991840637770452,-0.015,0.00771268928786332));
#1800=CARTESIAN_POINT('',(0.098175,-0.015,0.01));
#1801=CARTESIAN_POINT('',(0.099175,0.,0.01));
#1802=CARTESIAN_POINT('',(0.099175,0.015,0.01));
#1803=CARTESIAN_POINT('',(0.099175,0.015,0.0075));
#1804=CARTESIAN_POINT('',(0.099175,0.015,0.));
#1805=CARTESIAN_POINT('',(0.099175,-0.015,0.0075));
#1806=CARTESIAN_POINT('',(0.099175,0.,0.));
#1807=CARTESIAN_POINT('',(0.098425,0.015,0.01));
#1808=CARTESIAN_POINT('',(0.100675,0.015,0.03));
#1809=CARTESIAN_POINT('',(0.100675,0.015,0.029));
#1810=CARTESIAN_POINT('',(0.100675,0.015,0.01));
#1811=CARTESIAN_POINT('',(0.098175,0.015,0.01));
#1812=CARTESIAN_POINT('',(0.100665936222955,0.015,0.00978731071213668));
#1813=CARTESIAN_POINT('',(0.101675,0.015,0.0075));
#1814=CARTESIAN_POINT('',(0.098425,0.015,0.));
#1815=CARTESIAN_POINT('',(0.097675,0.015,0.029));
#1816=CARTESIAN_POINT('',(0.098675,0.015,0.03));
#1817=CARTESIAN_POINT('',(0.099175,0.015,0.03));
#1818=CARTESIAN_POINT('',(0.099675,0.015,0.03));
#1819=CARTESIAN_POINT('',(0.100675,0.015,0.029));
#1820=CARTESIAN_POINT('',(0.,0.,0.));
#1821=CARTESIAN_POINT('',(0.100675,0.,0.03));
#1822=CARTESIAN_POINT('',(0.100675,0.,0.0105806362671413));
#1823=CARTESIAN_POINT('',(0.100675,-0.0029,0.0105806362671413));
#1824=CARTESIAN_POINT('',(0.100675,-0.0059,0.0105806362671413));
#1825=CARTESIAN_POINT('',(0.100675,-0.0059,0.03));
#1826=CARTESIAN_POINT('',(0.100675,-0.0059,0.0128722130567165));
#1827=CARTESIAN_POINT('',(0.100675,-0.0049,0.0128722130567165));
#1828=CARTESIAN_POINT('',(0.100675,-0.0789,0.0128722130567165));
#1829=CARTESIAN_POINT('',(0.100675,-0.0789,0.0185611065283583));
#1830=CARTESIAN_POINT('',(0.100675,-0.0789,0.02425));
#1831=CARTESIAN_POINT('',(0.100675,-0.0049,0.02425));
#1832=CARTESIAN_POINT('',(0.100675,-0.0059,0.02425));
#1833=CARTESIAN_POINT('',(0.100675,-0.0059,0.03));
#1834=CARTESIAN_POINT('',(0.100675,-0.0059,0.0265423148815136));
#1835=CARTESIAN_POINT('',(0.100675,0.,0.0265423148815136));
#1836=CARTESIAN_POINT('',(0.100675,-0.0029,0.0265423148815136));
#1837=CARTESIAN_POINT('',(0.100675,-0.0029,0.0112249755445152));
#1838=CARTESIAN_POINT('',(0.100675,-0.1014,0.03));
#1839=CARTESIAN_POINT('',(0.100675,-0.1014,0.029));
#1840=CARTESIAN_POINT('',(0.100675,-0.1014,0.01));
#1841=CARTESIAN_POINT('',(0.100675,-0.015,0.01));
#1842=CARTESIAN_POINT('',(0.100675,0.,0.029));
#1843=CARTESIAN_POINT('',(0.,0.,0.03));
#1844=CARTESIAN_POINT('',(-4.71382192538765E-17,-0.1019,0.03));
#1845=CARTESIAN_POINT('',(0.098675,-0.1019,0.03));
#1846=CARTESIAN_POINT('',(-0.098675,-0.1019,0.03));
#1847=CARTESIAN_POINT('',(-0.098675,4.56463570645364E-17,0.03));
#1848=CARTESIAN_POINT('',(-0.098675,0.015,0.03));
#1849=CARTESIAN_POINT('',(-0.098425,0.015,0.03));
#1850=CARTESIAN_POINT('',(-0.099675,0.015,0.03));
#1851=CARTESIAN_POINT('',(-0.099675,-0.1039,0.03));
#1852=CARTESIAN_POINT('',(-0.099675,-0.1029,0.03));
#1853=CARTESIAN_POINT('',(0.,-0.1029,0.03));
#1854=CARTESIAN_POINT('',(0.099675,-0.1029,0.03));
#1855=CARTESIAN_POINT('',(0.099675,0.,0.03));
#1856=CARTESIAN_POINT('',(0.098675,0.,0.03));
#1857=CARTESIAN_POINT('',(0.101675,0.,0.0075));
#1858=CARTESIAN_POINT('',(0.100665936222955,0.015,0.00978731071213668));
#1859=CARTESIAN_POINT('',(0.100665936222955,-0.015,0.00978731071213668));
#1860=CARTESIAN_POINT('',(0.101675,-0.015,0.0075));
#1861=CARTESIAN_POINT('',(0.,-0.015,0.015));
#1862=CARTESIAN_POINT('',(0.098175,-0.015,0.01));
#1863=CARTESIAN_POINT('',(0.098425,-0.1039,0.0075));
#1864=CARTESIAN_POINT('',(-0.100675,-0.1014,0.0075));
#1865=CARTESIAN_POINT('',(0.098175,-0.1014,0.0075));
#1866=CARTESIAN_POINT('',(-0.098175,-0.1014,0.0075));
#1867=CARTESIAN_POINT('',(-0.098175,-0.1039,0.0075));
#1868=CARTESIAN_POINT('',(-0.098175,-0.015,0.0075));
#1869=CARTESIAN_POINT('',(-0.099925,-0.015,0.0075));
#1870=CARTESIAN_POINT('',(0.098175,-0.1014,0.0075));
#1871=CARTESIAN_POINT('',(0.,-0.1039,0.015));
#1872=CARTESIAN_POINT('',(0.,-0.1039,0.029));
#1873=CARTESIAN_POINT('',(0.098175,-0.1039,0.029));
#1874=CARTESIAN_POINT('',(-0.098175,-0.1039,0.029));
#1875=CARTESIAN_POINT('',(-0.098175,-0.1039,0.01));
#1876=CARTESIAN_POINT('',(-0.098175,-0.1039,0.01));
#1877=CARTESIAN_POINT('',(0.100675,-0.1039,0.01));
#1878=CARTESIAN_POINT('',(0.098175,-0.1039,0.01));
#1879=CARTESIAN_POINT('',(0.098175,-0.1039,0.015));
#1880=CARTESIAN_POINT('',(-0.098425,-0.015,0.01));
#1881=CARTESIAN_POINT('',(-0.098175,-0.015,0.01));
#1882=CARTESIAN_POINT('',(-0.0991840637770453,-0.015,0.00771268928786333));
#1883=CARTESIAN_POINT('',(-0.101675,-0.015,0.0075));
#1884=CARTESIAN_POINT('',(-0.099175,-0.015,0.0075));
#1885=CARTESIAN_POINT('',(-0.099175,-0.015,0.01));
#1886=CARTESIAN_POINT('',(-0.099175,-0.015,0.));
#1887=CARTESIAN_POINT('',(-0.098425,-0.015,0.));
#1888=CARTESIAN_POINT('',(-0.098425,0.015,0.01));
#1889=CARTESIAN_POINT('',(-0.101675,0.015,0.0075));
#1890=CARTESIAN_POINT('',(-0.099175,0.015,0.0075));
#1891=CARTESIAN_POINT('',(-0.100665936222955,0.015,0.00978731071213667));
#1892=CARTESIAN_POINT('',(-0.098175,0.015,0.01));
#1893=CARTESIAN_POINT('',(-0.100675,0.015,0.01));
#1894=CARTESIAN_POINT('',(-0.100675,0.015,0.03));
#1895=CARTESIAN_POINT('',(-0.100675,0.015,0.029));
#1896=CARTESIAN_POINT('',(-0.10905,0.015,0.020625));
#1897=CARTESIAN_POINT('',(-0.08855,0.015,0.019875));
#1898=CARTESIAN_POINT('',(-0.098425,0.015,0.));
#1899=CARTESIAN_POINT('',(-0.099175,0.015,0.));
#1900=CARTESIAN_POINT('',(-0.099175,0.015,0.01));
#1901=CARTESIAN_POINT('',(-0.099175,0.,0.01));
#1902=CARTESIAN_POINT('',(-0.099175,0.015,0.0075));
#1903=CARTESIAN_POINT('',(-0.099175,0.,0.));
#1904=CARTESIAN_POINT('',(0.,0.,0.));
#1905=CARTESIAN_POINT('',(-0.100675,0.,0.03));
#1906=CARTESIAN_POINT('',(-0.100675,0.,0.01));
#1907=CARTESIAN_POINT('',(-0.100675,-0.1014,0.01));
#1908=CARTESIAN_POINT('',(-0.100675,-0.1014,0.029));
#1909=CARTESIAN_POINT('',(-0.100675,-0.1014,0.029));
#1910=CARTESIAN_POINT('',(-0.100675,0.015,0.029));
#1911=CARTESIAN_POINT('',(-0.101675,4.70341358453178E-17,0.0075));
#1912=CARTESIAN_POINT('',(-0.101675,-0.015,0.0075));
#1913=CARTESIAN_POINT('',(-0.100665936222955,-0.015,0.00978731071213667));
#1914=CARTESIAN_POINT('',(-0.100665936222955,-0.015,0.00978731071213667));
#1915=CARTESIAN_POINT('',(0.,-0.015,0.015));
#1916=CARTESIAN_POINT('',(-0.098175,-0.015,0.01));
#1917=CARTESIAN_POINT('',(0.,-0.1014,0.01));
#1918=CARTESIAN_POINT('',(-0.098175,-0.1014,0.01));
#1919=CARTESIAN_POINT('',(0.098175,-0.1014,0.01));
#1920=CARTESIAN_POINT('',(0.097675,0.,0.029));
#1921=CARTESIAN_POINT('',(0.0657833333333334,-0.0690083333333334,-0.00289166666666661));
#1922=CARTESIAN_POINT('',(-4.71382192538765E-17,-0.1019,0.03));
#1923=CARTESIAN_POINT('',(-0.0640416666666667,-0.0672666666666665,-0.00463333333333338));
#1924=CARTESIAN_POINT('',(-0.097675,0.,0.029));
#1925=CARTESIAN_POINT('',(-0.099675,0.,0.03));
#1926=CARTESIAN_POINT('',(-0.098175,-0.1014,0.0315));
#1927=CARTESIAN_POINT('',(-0.0999427669529664,-0.103167766952966,0.0297322330470337));
#1928=CARTESIAN_POINT('',(-0.065375,-0.0686,0.0643));
#1929=CARTESIAN_POINT('',(0.,-0.1039,0.029));
#1930=CARTESIAN_POINT('',(-0.098175,-0.1014,0.0315));
#1931=CARTESIAN_POINT('',(0.098175,-0.1014,0.0315));
#1932=CARTESIAN_POINT('',(0.0999427669529664,-0.103167766952966,0.0297322330470337));
#1933=CARTESIAN_POINT('',(0.0671166666666667,-0.0703416666666667,0.0625583333333333));
#1934=CARTESIAN_POINT('',(0.100675,0.,0.029));
#1935=CARTESIAN_POINT('',(0.098175,-0.1014,0.0315));
#1936=CARTESIAN_POINT('',(-0.098175,-0.1039,0.01));
#1937=CARTESIAN_POINT('',(-0.098175,-0.1014,0.01));
#1938=CARTESIAN_POINT('',(-0.098175,-0.1014,0.01));
#1939=CARTESIAN_POINT('',(-0.098175,-0.1014,0.01));
#1940=CARTESIAN_POINT('',(-0.098175,-0.1014,0.015));
#1941=CARTESIAN_POINT('',(0.098175,-0.1014,0.015));
#1942=CARTESIAN_POINT('',(0.098175,-0.1014,0.01));
#1943=CARTESIAN_POINT('',(0.098175,-0.1014,0.01));
#1944=CARTESIAN_POINT('',(0.098175,-0.1014,0.01));
#1945=CARTESIAN_POINT('',(0.098175,0.,0.01));
#1946=CARTESIAN_POINT('',(-0.0891770156264256,-0.0836469765603617,0.0135));
#1947=CARTESIAN_POINT('',(-0.0891770156264256,-0.0836469765603617,0.0135));
#1948=CARTESIAN_POINT('',(-0.096675,-0.0724,0.0135));
#1949=CARTESIAN_POINT('',(-0.0783416666666667,-0.0999,0.0135));
#1950=CARTESIAN_POINT('',(-0.097675,-0.0999,0.0135));
#1951=CARTESIAN_POINT('',(-0.096675,-0.0999,0.0135));
#1952=CARTESIAN_POINT('',(-0.096675,-0.0709,0.0135));
#1953=CARTESIAN_POINT('',(-0.0891770156264256,-0.0836469765603617,0.0165));
#1954=CARTESIAN_POINT('',(-0.0891770156264256,-0.0836469765603617,0.0165));
#1955=CARTESIAN_POINT('',(-0.096675,-0.0724,0.0165));
#1956=CARTESIAN_POINT('',(-0.0783416666666667,-0.0999,0.0165));
#1957=CARTESIAN_POINT('',(-0.096675,-0.0836469765603617,0.0165));
#1958=CARTESIAN_POINT('',(-0.096675,-0.0999,0.0165));
#1959=CARTESIAN_POINT('',(-0.0891770156264256,-0.0999,0.0165));
#1960=CARTESIAN_POINT('',(-0.0891770156264256,-0.0836469765603617,0.015));
#1961=CARTESIAN_POINT('',(-0.096675,-0.0724,0.0125));
#1962=CARTESIAN_POINT('',(-0.0975070502943379,-0.0711519245584932,0.0130547001962268));
#1963=CARTESIAN_POINT('',(-0.0975070502943379,-0.0711519245584932,0.0165));
#1964=CARTESIAN_POINT('',(-0.0975070502943379,-0.0711519245584932,0.0169452998037731));
#1965=CARTESIAN_POINT('',(-0.096675,-0.0724,0.0175));
#1966=CARTESIAN_POINT('',(-0.0783416666666667,-0.0999,0.0175));
#1967=CARTESIAN_POINT('',(-0.0779718665358499,-0.100454700196225,0.0166679497056609));
#1968=CARTESIAN_POINT('',(-0.0779718665358499,-0.100454700196225,0.0135));
#1969=CARTESIAN_POINT('',(-0.0779718665358499,-0.100454700196225,0.0133320502943391));
#1970=CARTESIAN_POINT('',(-0.0783416666666667,-0.0999,0.0125));
#1971=CARTESIAN_POINT('',(0.111742302342657,-0.0497990464860147,0.0135));
#1972=CARTESIAN_POINT('',(0.111742302342657,-0.0497990464860147,0.0135));
#1973=CARTESIAN_POINT('',(0.096675,-0.0724,0.0135));
#1974=CARTESIAN_POINT('',(0.0783416666666667,-0.0999,0.0135));
#1975=CARTESIAN_POINT('',(0.096675,-0.0497990464860147,0.0135));
#1976=CARTESIAN_POINT('',(0.096675,-0.0999,0.0135));
#1977=CARTESIAN_POINT('',(0.111742302342657,-0.0999,0.0135));
#1978=CARTESIAN_POINT('',(0.111742302342657,-0.0497990464860147,0.0165));
#1979=CARTESIAN_POINT('',(0.097675,-0.0999,0.0165));
#1980=CARTESIAN_POINT('',(0.0783416666666667,-0.0999,0.0165));
#1981=CARTESIAN_POINT('',(0.096675,-0.0999,0.0165));
#1982=CARTESIAN_POINT('',(0.096675,-0.0709,0.0165));
#1983=CARTESIAN_POINT('',(0.096675,-0.0724,0.0165));
#1984=CARTESIAN_POINT('',(0.111742302342657,-0.0497990464860147,0.0165));
#1985=CARTESIAN_POINT('',(0.111742302342657,-0.0497990464860147,0.015));
#1986=CARTESIAN_POINT('',(0.096675,-0.0724,0.0175));
#1987=CARTESIAN_POINT('',(0.0975070502943378,-0.0711519245584933,0.0169452998037732));
#1988=CARTESIAN_POINT('',(0.0975070502943378,-0.0711519245584933,0.0135));
#1989=CARTESIAN_POINT('',(0.0975070502943378,-0.0711519245584933,0.0130547001962268));
#1990=CARTESIAN_POINT('',(0.096675,-0.0724,0.0125));
#1991=CARTESIAN_POINT('',(0.0783416666666667,-0.0999,0.0125));
#1992=CARTESIAN_POINT('',(0.0779718665358498,-0.100454700196225,0.0133320502943391));
#1993=CARTESIAN_POINT('',(0.0779718665358498,-0.100454700196225,0.0165));
#1994=CARTESIAN_POINT('',(0.0779718665358498,-0.100454700196225,0.0166679497056609));
#1995=CARTESIAN_POINT('',(0.0783416666666667,-0.0999,0.0175));
#1996=CARTESIAN_POINT('',(-0.0771398162415121,-0.0999,0.01875));
#1997=CARTESIAN_POINT('',(-0.0771398162415121,-0.0999,0.0175));
#1998=CARTESIAN_POINT('',(-0.0771398162415121,-0.0999,0.0125));
#1999=CARTESIAN_POINT('',(-0.0891770156264256,-0.0999,0.0175));
#2000=CARTESIAN_POINT('',(-0.096675,-0.0999,0.0175));
#2001=CARTESIAN_POINT('',(0.097677,-0.0999,0.0125));
#2002=CARTESIAN_POINT('',(-0.096675,-0.0999,0.0125));
#2003=CARTESIAN_POINT('',(-0.096675,-0.0836469765603617,0.0175));
#2004=CARTESIAN_POINT('',(-0.096675,-0.070597224362268,0.0175));
#2005=CARTESIAN_POINT('',(-0.096675,-4.62592926927149E-19,0.0125));
#2006=CARTESIAN_POINT('',(-0.096675,-0.070597224362268,0.0125));
#2007=CARTESIAN_POINT('',(-0.096675,-0.070597224362268,0.01));
#2008=CARTESIAN_POINT('',(0.077139816241512,-0.0999,0.01875));
#2009=CARTESIAN_POINT('',(0.077139816241512,-0.0999,0.0125));
#2010=CARTESIAN_POINT('',(0.077139816241512,-0.0999,0.0175));
#2011=CARTESIAN_POINT('',(0.111742302342657,-0.0999,0.0125));
#2012=CARTESIAN_POINT('',(0.096675,-0.0999,0.0125));
#2013=CARTESIAN_POINT('',(0.097677,-0.0999,0.0175));
#2014=CARTESIAN_POINT('',(0.096675,-0.0999,0.0175));
#2015=CARTESIAN_POINT('',(0.096675,-0.0497990464860147,0.0125));
#2016=CARTESIAN_POINT('',(0.096675,-0.0705972243622681,0.0125));
#2017=CARTESIAN_POINT('',(0.096675,0.,0.0175));
#2018=CARTESIAN_POINT('',(0.096675,-0.0705972243622681,0.0175));
#2019=CARTESIAN_POINT('',(0.096675,-0.0705972243622681,0.01));
#2020=CARTESIAN_POINT('',(0.10366195200795,-0.0049,0.0228482130496404));
#2021=CARTESIAN_POINT('',(0.106648904015901,-0.0049,0.0214464260992808));
#2022=CARTESIAN_POINT('',(0.106648904015901,-0.0059,0.0214464260992808));
#2023=CARTESIAN_POINT('',(0.106648904015901,-0.0789,0.0214464260992808));
#2024=CARTESIAN_POINT('',(0.100675,-0.0059,0.02425));
#2025=CARTESIAN_POINT('',(0.10366195200795,-0.0789,0.0228482130496404));
#2026=CARTESIAN_POINT('',(0.103643186779623,-0.0049,0.0142192328031007));
#2027=CARTESIAN_POINT('',(0.106611373559247,-0.0059,0.0155662525494849));
#2028=CARTESIAN_POINT('',(0.106611373559247,-0.0059,0.0155662525494849));
#2029=CARTESIAN_POINT('',(0.106611373559247,-0.0049,0.0155662525494849));
#2030=CARTESIAN_POINT('',(0.106611373559247,-0.0789,0.0155662525494849));
#2031=CARTESIAN_POINT('',(0.103643186779623,-0.0789,0.0142192328031007));
#2032=CARTESIAN_POINT('',(0.106630138787574,-0.0049,0.0185063393243829));
#2033=CARTESIAN_POINT('',(0.106648904015901,-0.0059,0.0214464260992808));
#2034=CARTESIAN_POINT('',(0.106630138787574,-0.0789,0.0185063393243829));
#2035=CARTESIAN_POINT('',(0.10366195200795,-0.0789,0.0185611065283583));
#2036=CARTESIAN_POINT('',(0.104414999487704,-0.0049,0.0185659732785459));
#2037=CARTESIAN_POINT('',(0.101088254670986,-0.0049,0.0119615975632682));
#2038=CARTESIAN_POINT('',(0.107607269517306,-0.0049,0.0149200507796385));
#2039=CARTESIAN_POINT('',(0.101675,-0.0049,0.0122278737793427));
#2040=CARTESIAN_POINT('',(0.101675,-0.0049,0.0185659732785459));
#2041=CARTESIAN_POINT('',(0.101675,-0.0049,0.0116787946086089));
#2042=CARTESIAN_POINT('',(0.104390108748168,-0.0049,0.0129109627196152));
#2043=CARTESIAN_POINT('',(0.108105217496336,-0.0049,0.0145969498947152));
#2044=CARTESIAN_POINT('',(0.108130108235872,-0.0049,0.018496765705869));
#2045=CARTESIAN_POINT('',(0.108154998975409,-0.0049,0.0223965815170229));
#2046=CARTESIAN_POINT('',(0.104414999487704,-0.0049,0.0241517762647996));
#2047=CARTESIAN_POINT('',(0.101675,-0.0049,0.025437667539796));
#2048=CARTESIAN_POINT('',(0.101675,-0.0049,0.0185659732785459));
#2049=CARTESIAN_POINT('',(0.101675,-0.0049,0.0248853438689372));
#2050=CARTESIAN_POINT('',(0.107073748629251,-0.0049,0.022351692388561));
#2051=CARTESIAN_POINT('',(0.107652967322239,-0.0049,0.0220798630444422));
#2052=CARTESIAN_POINT('',(0.107611353191446,-0.0049,0.0155598701371425));
#2053=CARTESIAN_POINT('',(0.104414999487704,-0.0039,0.0241517762647996));
#2054=CARTESIAN_POINT('',(0.107157965071983,-0.0049,0.0228644929903803));
#2055=CARTESIAN_POINT('',(0.107157965071983,-0.0039,0.0228644929903803));
#2056=CARTESIAN_POINT('',(0.104414999487704,-0.0039,0.0241517762647996));
#2057=CARTESIAN_POINT('',(0.101675,-0.0039,0.025437667539796));
#2058=CARTESIAN_POINT('',(0.101675,-0.0029,0.025437667539796));
#2059=CARTESIAN_POINT('',(0.10125015538665,-0.00380526628928025,0.0256370485922333));
#2060=CARTESIAN_POINT('',(0.10125015538665,-0.0039,0.0256370485922333));
#2061=CARTESIAN_POINT('',(0.10125015538665,-0.00499473371071975,0.0256370485922333));
#2062=CARTESIAN_POINT('',(0.101675,-0.0059,0.025437667539796));
#2063=CARTESIAN_POINT('',(0.104390108748168,-0.0039,0.0129109627196152));
#2064=CARTESIAN_POINT('',(0.104390108748168,-0.0039,0.0129109627196152));
#2065=CARTESIAN_POINT('',(0.107102292135363,-0.0039,0.0141418032460429));
#2066=CARTESIAN_POINT('',(0.101675,-0.0039,0.0116787946086089));
#2067=CARTESIAN_POINT('',(0.107102292135363,-0.0049,0.0141418032460429));
#2068=CARTESIAN_POINT('',(0.101675,-0.0059,0.0116787946086089));
#2069=CARTESIAN_POINT('',(0.101261745329014,-0.00498938450655161,0.0114912517605897));
#2070=CARTESIAN_POINT('',(0.101261745329014,-0.0039,0.0114912517605897));
#2071=CARTESIAN_POINT('',(0.101261745329014,-0.0038106154934484,0.0114912517605897));
#2072=CARTESIAN_POINT('',(0.101675,-0.0029,0.0116787946086089));
#2073=CARTESIAN_POINT('',(0.104414999487704,-0.0039,0.0185659732785459));
#2074=CARTESIAN_POINT('',(0.107105237864137,-0.0039,0.0146033323070577));
#2075=CARTESIAN_POINT('',(0.101675,-0.0039,0.0259069710125765));
#2076=CARTESIAN_POINT('',(0.107130418970292,-0.0049,0.018548641998725));
#2077=CARTESIAN_POINT('',(0.106350863082171,-0.0059,0.0226909450862283));
#2078=CARTESIAN_POINT('',(0.107652967322239,-0.0059,0.0220798630444422));
#2079=CARTESIAN_POINT('',(0.101675,-0.0059,0.0248853438689372));
#2080=CARTESIAN_POINT('',(0.101675,-0.0059,0.0185659732785459));
#2081=CARTESIAN_POINT('',(0.101675,-0.0059,0.0265423148815136));
#2082=CARTESIAN_POINT('',(0.107630408786391,-0.0059,0.0185454507925537));
#2083=CARTESIAN_POINT('',(0.107607269517306,-0.0059,0.0149200507796385));
#2084=CARTESIAN_POINT('',(0.101675,-0.0039,0.0265423148815136));
#2085=CARTESIAN_POINT('',(0.101675,-0.0029,0.0265423148815136));
#2086=CARTESIAN_POINT('',(0.106332192879789,-0.0059,0.0143413966933525));
#2087=CARTESIAN_POINT('',(0.101675,-0.0059,0.0122278737793427));
#2088=CARTESIAN_POINT('',(0.101675,-0.0029,0.03));
#2089=CARTESIAN_POINT('',(0.101675,-0.0029,0.0105806362671413));
#2090=CARTESIAN_POINT('',(0.101675,-0.0059,0.0185659732785459));
#2091=CARTESIAN_POINT('',(0.101675,-0.0059,0.0105806362671413));
#2092=CARTESIAN_POINT('',(0.101675,0.,0.0105806362671413));
#2093=MECHANICAL_DESIGN_GEOMETRIC_PRESENTATION_REPRESENTATION('',(#1228),
#2094);
#2094=(
GEOMETRIC_REPRESENTATION_CONTEXT(3)
GLOBAL_UNCERTAINTY_ASSIGNED_CONTEXT((#2095))
GLOBAL_UNIT_ASSIGNED_CONTEXT((#2098,#2097,#2096))
REPRESENTATION_CONTEXT('Part 1','TOP_LEVEL_ASSEMBLY_PART')
);
#2095=UNCERTAINTY_MEASURE_WITH_UNIT(LENGTH_MEASURE(1.E-8),#2098,
'DISTANCE_ACCURACY_VALUE','Maximum Tolerance applied to model');
#2096=(
NAMED_UNIT(*)
SI_UNIT($,.STERADIAN.)
SOLID_ANGLE_UNIT()
);
#2097=(
NAMED_UNIT(*)
PLANE_ANGLE_UNIT()
SI_UNIT($,.RADIAN.)
);
#2098=(
LENGTH_UNIT()
NAMED_UNIT(*)
SI_UNIT($,.METRE.)
);
#2099=PRODUCT_DEFINITION_SHAPE('','',#2100);
#2100=PRODUCT_DEFINITION('','',#2102,#2101);
#2101=PRODUCT_DEFINITION_CONTEXT('',#2108,'design');
#2102=PRODUCT_DEFINITION_FORMATION_WITH_SPECIFIED_SOURCE('','',#2104,
 .NOT_KNOWN.);
#2103=PRODUCT_RELATED_PRODUCT_CATEGORY('','',(#2104));
#2104=PRODUCT('Part 1','Part 1','Part 1',(#2106));
#2105=PRODUCT_CATEGORY('','');
#2106=PRODUCT_CONTEXT('',#2108,'mechanical');
#2107=APPLICATION_PROTOCOL_DEFINITION('international standard',
'ap242_managed_model_based_3d_engineering',2020,#2108);
#2108=APPLICATION_CONTEXT('managed model based 3d engineering');
ENDSEC;
END-ISO-10303-21;
